<?xml version="1.0" encoding="utf-8"?>
<!-- Generator: Adobe Illustrator 27.1.1, SVG Export Plug-In . SVG Version: 6.00 Build 0)  -->
<svg version="1.1" id="Layer_1" xmlns="http://www.w3.org/2000/svg" xmlns:xlink="http://www.w3.org/1999/xlink" x="0px" y="0px"
	 viewBox="0 0 1920 1080" style="enable-background:new 0 0 1920 1080;" xml:space="preserve">
<style type="text/css">
	.st0{fill:#FFFFFF;}
	.st1{fill:#C00000;}
	.st2{fill:#BF0000;}
	.st3{fill:#F1C5C5;}
	.st4{fill:#EBB1B1;}
	.st5{fill:#FEFCFD;}
	.st6{fill:#FCF3F3;}
	.st7{fill:#D96868;}
	.st8{fill:#DE7C7B;}
	.st9{fill:#D55959;}
	.st10{fill:#E8A5A5;}
	.st11{fill:#E49494;}
	.st12{fill:#DC7474;}
	.st13{fill:#C31111;}
	.st14{fill:#D86262;}
	.st15{fill:#F0C5C5;}
	.st16{fill:#E9A7A7;}
	.st17{fill:#D55A5A;}
	.st18{fill:#D24C4C;}
	.st19{fill:#DD7777;}
	.st20{fill:#BF0101;}
	.st21{fill:#E69D9D;}
	.st22{fill:#FCF4F5;}
	.st23{fill:#ECB4B4;}
	.st24{fill:#E28D8D;}
	.st25{fill:#DC7171;}
	.st26{fill:#CC3434;}
	.st27{fill:#D65A5A;}
	.st28{fill:#D86564;}
	.st29{fill:#DA6969;}
	.st30{fill:#DC7575;}
	.st31{fill:#D14A4A;}
	.st32{fill:#CE3C3C;}
	.st33{fill:#E49292;}
	.st34{fill:#EBAEAE;}
	.st35{fill:#DA6E6E;}
	.st36{fill:#D45555;}
	.st37{fill:#D45353;}
	.st38{fill:#E59696;}
	.st39{fill:#CB3030;}
	.st40{fill:#E18686;}
	.st41{fill:#DB6E6E;}
	.st42{fill:#D75C5C;}
	.st43{fill:#BF0001;}
	.st44{fill:#E7A2A2;}
	.st45{fill:#E59495;}
</style>
<g>
	<path class="st0" d="M335,107h1250v867H335V107 M1378.67,379.08c0.01,0.75,0.05,2.27,0.07,3.03c1.1-0.14,3.31-0.43,4.42-0.57
		c-1.58,1.49-3.61,2.22-5.71,2.57l0.1-1.68c-1.86-0.01-3.71-0.02-5.54-0.08c-2.07-1.15-4.42-2.31-6.84-1.84
		c-1.72,1.18-3.43,2.39-5.3,3.3c-1.06-0.9-2.1-1.81-3.12-2.72c-0.29,0.38-0.88,1.16-1.17,1.55c-0.59-0.18-1.78-0.52-2.37-0.69
		c-11.14,0.93-22.24,2.44-33.36,3.59c-10.09,1.33-20.4,1.81-30.31,4c-2.19-0.4-4.4-0.18-6.57,0.13c-0.27,0.38-0.81,1.14-1.08,1.52
		c-2.95-0.17-5.87-0.99-8.81-0.43c-8.14,1.12-16.4,1.44-24.42,3.32c-10.61,0.3-21.14,2.03-31.72,2.98
		c-2.23-0.01-4.22,0.88-5.92,2.26c1.35,2.61,4,1.3,6.27,1.07c-1.28,1.7-3.67,1.2-5.44,0.78c-0.73-1.01-1.08-2.22-1.47-3.37
		c-9.6,1.27-19.3,1.87-28.79,3.79c-6.85-0.61-13.59,1.61-20.43,1.78c-32.25,3.53-64.49,7.26-96.74,10.8
		c-1.16,0.04-2.22,0.37-3.18,0.98c-0.03,0.48-0.08,1.44-0.1,1.92c-0.14-0.15-0.4-0.46-0.54-0.61c-0.16-0.33-0.48-0.99-0.64-1.32
		l-0.52-0.26c-11.87,1.35-23.85,2.13-35.61,4.2c-6.12,0.01-12.15,1.16-18.22,1.71c-10.31,1.29-20.69,2.05-30.95,3.67
		c2.07,0.69,4.36,0.99,6.15,2.38c2.52,0.05,5.16-0.6,7.56,0.54c-2.79,0.1-5.58,0.15-8.32,0.75c-3.44-0.47-6.91-0.41-10.35-0.05
		c0.03-0.61,0.09-1.83,0.12-2.43c0.79-0.35,1.59-0.7,2.38-1.06c-16.07,1.73-32.12,3.55-48.18,5.35c-3.87,0.47-7.79,0.65-11.58,1.61
		c-1.67,0.01-3.49-0.16-4.76,1.16c-3.17,3.18-8.32-1.54-11.17,2.34c2.87,0.04,5.82,0.01,8.57,0.98c-3.66,3.06-8.52,2.73-12.98,2.83
		c2.47-0.83,4.24-2.62,5.09-5.1c-2.43-0.42-4.87-0.2-7.29,0.09c-1.66,0.8-3.74,3.17-4.9,0.38c-0.31,0.45-0.94,1.36-1.26,1.81
		c-0.42-0.3-1.26-0.9-1.69-1.2c-0.67,1.22-1.33,2.43-1.99,3.66c-1.29-0.74-4.24-0.24-4.21-2.23c1.35-0.47,2.81-0.64,4.22-0.95
		c-2.73-0.01-5.47,0.06-8.19,0c1.18,0.23,3.94,0.13,3.11,2.05c-2.67,0.41-5.35,1.18-8.06,0.71c0.75-0.47,2.27-1.43,3.02-1.91
		c-43.74,4.36-87.36,10.03-131.1,14.32c3.39,0.27,6.76,0.89,10.17,0.8c0.16,0.53,0.47,1.58,0.62,2.11
		c-4.53-0.09-9.06,0.08-13.53-0.81l0.9-1.7c-2.37,0.27-4.81,0.38-7,1.4c-8.27-0.04-16.46,1.26-24.65,2.27
		c1.19,0.59,2.38,1.17,3.59,1.74c-1.36,1.26-2.98,2.15-4.69,2.83c-5.36-0.67-10.26,1.54-15.41,2.45c-1.12-1.03-2.25-2.05-3.29-3.15
		c2.62-0.71,5.28-1.29,7.88-2.08c-4.19-0.44-8.35,0.46-12.51,0.85c-32.84,3.66-65.66,7.41-98.51,11.01
		c-0.26,0.72-0.79,2.17-1.06,2.9c4.09,1.75,8.74,2.49,13.06,1.17c0.34,0.44,1,1.32,1.33,1.76c0-0.6-0.02-1.81-0.03-2.41
		c1.34,0.66,2.7,1.72,4.31,1.33c63.41-6.99,126.74-14.32,190.13-21.26c1.5-0.14,3.05-0.35,4.29-1.3c2.19,0.53,4.44,0.37,6.66,0.06
		c20.13-2.37,40.28-4.48,60.41-6.87l-0.73-1.61c4.89,1.08,9.97,0.61,14.91,0.06c1.15-1.97,3.37-2.29,5.46-2.49
		c0.41,0.47,1.22,1.41,1.63,1.89c-0.02-0.71-0.05-2.11-0.07-2.82c0.73,0.81,1.46,1.62,2.19,2.44c9.43-1.08,18.87-2.21,28.33-3.12
		l-1.02-0.5c0.47-0.38,1.41-1.13,1.88-1.51c0.88,0.51,1.75,1.03,2.63,1.57c2.89-0.37,5.8-0.66,8.7-1c-2.17-0.79-4.37-1.53-6.42-2.59
		c1.99-0.47,3.99-0.99,6.03-1.25c-0.19,0.62-0.56,1.84-0.75,2.46c1.15,0.35,2.31,0.72,3.47,1.12c48.96-5.49,97.91-11,146.87-16.47
		c-0.12-0.34-0.36-1.04-0.48-1.38c1.1,0.84,2.34,1.37,3.77,1.01c36.76-4.16,73.52-8.21,110.27-12.41c-1.6-1.27-3.24-2.54-4.76-3.88
		c2.35,0.49,4.72,1.11,7.11,1.55c0.96,0.57,1.9,1.22,2.96,1.68c11.82-1.22,23.63-2.65,35.47-3.78c-0.57-0.34-1.7-1-2.27-1.34
		c2.4-1.48,5.29-1.38,7.99-1.9c-0.71,0.93-1.54,1.76-2.25,2.68c3.48-0.37,6.99-0.51,10.42-1.27c0.21-0.41,0.62-1.23,0.83-1.64
		c0.75,0.17,2.26,0.52,3.01,0.69l-0.35-1.87c1.18,0.74,2.36,1.48,3.55,2.22c10.06-1.21,20.14-2.23,30.2-3.44
		c-0.45-0.61-1.34-1.83-1.79-2.45c1.5,0.72,2.98,1.46,4.45,2.27c1.14-0.26,2.29-0.52,3.45-0.8c-0.75-0.18-2.24-0.55-2.99-0.73
		c0.44-0.49,1.31-1.47,1.75-1.96c-0.54-0.65-1.63-1.93-2.18-2.57c3.38,0.65,6.77,1.32,10.2,1.77c-0.1,0.45-0.3,1.36-0.39,1.81
		c3.73,1.1,7.58,0.39,11.34-0.19c8.71-0.75,17.44-1.63,26.09-2.96c11.56-0.77,23.04-2.54,34.58-3.57c0.14-0.5,0.43-1.49,0.58-1.98
		c2.54,0.46,5.08,1.43,7.71,1c14.04-1.6,28.08-3.18,42.13-4.74c2.4-0.39,5.31,0.5,6.25,2.96c0.74,2.43,0.86,5,1.18,7.51
		c6.96,62.66,14.08,125.31,21,187.97c0.76,5.95-6.06,6.59-10.32,6.71c0.38,1.46,0.79,2.91,1.21,4.38c-1.66-0.66-3.29-1.37-4.94-2
		c0.05-0.39,0.14-1.17,0.18-1.56c-3.12-0.03-6.16,0.69-9.27,0.72c-0.01,0.4-0.04,1.21-0.05,1.61l-0.64-0.18l0.35-1.45
		c-3.19,0.41-6.39,0.71-9.58,0.96c0.05,0.56,0.13,1.68,0.17,2.25c-0.39-0.5-1.18-1.49-1.57-1.98c-11.04,1.18-22.06,2.48-33.09,3.68
		c-4.36,0.4-8.62,1.59-13.03,1.36c0.71,0.84,1.45,1.65,2.15,2.53c-2.9,1.73-6.62-0.51-9.85,0.59c-0.23,0.87-0.68,2.63-0.91,3.5
		c-1.74-2.41-4.73-1.89-7.27-2.18c-3.18-0.22-6.32-0.71-9.48-0.89c0.98,0.85,2.04,1.77,3.45,1.81c4.63,0.71,9.32,1.04,13.86,2.26
		c4.22-0.27,8.4-1.01,12.64-1.22c0.01-0.42,0.03-1.27,0.04-1.69c1.12-0.99,3.51-1.51,1.93-3.7c2.38,1.48-1.1,3.58-1.4,5.23
		c14.03-1.61,28.08-3.03,42.08-4.8c-1.13-1.29-2.66-1.91-4.21-2.43c1.4-0.44,2.81-0.93,4.2-1.48c-0.07,0.82-0.21,2.45-0.28,3.26
		c4.09,0.79,8.2-0.26,12.28-0.61c5.05-0.68,10.23-0.71,15.1-2.37c4.77,0.55,9.51-0.48,14.26-0.92
		c-8.1-72.63-16.26-145.26-24.38-217.89C1410.95,375.41,1394.77,376.97,1378.67,379.08 M1389.28,389.61
		c0.48,1.06,0.99,2.12,1.54,3.17c8.7-1.23,17.45-2,26.17-3.05c-0.18-1.04-0.36-2.07-0.52-3.09
		C1407.41,387.67,1398.36,388.82,1389.28,389.61 M1356.73,393.39c0.56,3.34,4.11,0,6.2,1.19c3.96,1.42,8.11,0.18,12.15-0.15
		c4.67-0.46,9.32-1.26,14.03-1.32c0.07-0.35,0.22-1.06,0.29-1.41c-1.6-0.06-3.06-0.53-4.36-1.42
		C1375.58,391.17,1366.16,392.35,1356.73,393.39 M1349.49,394.16c0.22,1.34,0.94,1.56,2.14,0.64
		C1351.38,393.46,1350.67,393.24,1349.49,394.16 M1255.56,404.65c-0.02,0.34-0.05,1.02-0.07,1.36c-1.51-0.33-2.99-1.06-4.55-0.77
		c-15.15,1.63-30.28,3.51-45.44,5.01c-0.25,0.85-0.73,2.54-0.98,3.38c15.11-1.91,30.27-3.38,45.38-5.2
		c2.31-0.24,4.61-1.23,6.96-0.74l-0.59-2.84c0.77,0.85,2.31,2.53,3.07,3.38c0.03-0.77,0.09-2.31,0.12-3.08
		c3.29,0.54,6.61,1.08,9.95,1.41l-0.02-1.49c4.88,1.24,9.84-0.01,14.74-0.45c5.35-0.69,10.77-0.92,16.04-2.14
		c-3.06-0.59-6.27-0.39-9.16-1.65C1279.18,401.94,1267.39,403.53,1255.56,404.65 M1154.34,416.1c1.8,0.91,3.38,2.94,5.61,2.43
		c7.49-0.62,14.89-1.96,22.33-2.93c7.38-0.03,14.7-1.19,22-2.2c-1.07-1.3-2.34-2.97-4.27-2.42
		C1184.78,412.63,1169.56,414.35,1154.34,416.1 M1090.35,423.2c-0.17,0.5-0.49,1.5-0.65,2l0.1-2c-10.43,1.47-20.94,2.29-31.37,3.69
		c-0.55,1.24,1.74,1.87,2.33,2.83c30.63-3.55,61.29-6.96,91.95-10.31c0.09-0.5,0.28-1.5,0.38-2c-1.16,0.01-2.3,0-3.43-0.03
		c-1.2-0.4-2.42-0.53-3.66-0.38C1127.45,419.07,1108.91,421.22,1090.35,423.2 M1049.43,428.12c-3.13-0.58-2.57,3.72-5.67,2.83
		c-0.22-0.49-0.67-1.48-0.89-1.98c-3.63-0.18-7.22,0.45-10.8,0.82c-27.95,3.14-55.91,6.23-83.84,9.42c0.47,0.89,0.98,1.76,1.53,2.61
		c1.79-0.07,3.93-2.02,5.48-0.43c20.63-2.08,41.22-4.58,61.83-6.83c13.78-1.73,27.67-2.72,41.38-4.94
		C1055.64,428.21,1052.54,426.73,1049.43,428.12 M1360.63,430.76c0.31,2.98,0.63,5.97,0.9,8.96c5.24,0.8,10.5,2.62,14.32,6.44
		c4.82,4.38,7.15,10.57,9.74,16.36c1.51,3.14,7.03,0.9,6.15-2.45c-1.12-10.75-2.2-21.51-3.58-32.21
		C1378.96,428.54,1369.81,429.84,1360.63,430.76 M1321.92,435.12c-3.88,0.39-5.01,5.85-2.3,8.25c2.43,1.52,6.5,1.83,6.48,5.52
		c3.38,29.31,6.43,58.67,9.7,88c0.03,1.89,0.74,4.43-1.1,5.73c-1.73,1.59-4.77,2.53-4.67,5.34c-0.32,2.79,2.06,5.64,4.99,5.22
		c10.97-1.05,21.91-2.44,32.88-3.56c-4.24-39.41-8.62-78.81-12.9-118.22C1343.98,432.65,1332.92,433.7,1321.92,435.12
		 M1289.84,438.5c-2.44,0.38-5.41,0.21-7.13,2.29c-1.81,2.42-0.74,6.27,2.12,7.34c4.43,1.94,7.33,6.1,8.39,10.74
		c2.43,10.05,2.27,20.53,4.14,30.68c2.66,5.04,5.48,10.05,8.58,14.85c-1.03-11.45-2.46-22.86-3.66-34.3
		c-0.64-6.09-1.6-12.46,0.42-18.39c1.01-3.34,4.15-5.16,6.24-7.72c1.59-2.82-0.37-7.12-3.84-6.97
		C1299.98,437.16,1294.93,438.1,1289.84,438.5 M940.03,440.08c-8.95,0.85-17.86,2.44-26.84,2.68c-0.29,1.05-0.57,2.1-0.84,3.16
		c6.11,0.05,12.14-1.13,18.21-1.67c5.81-0.79,11.71-0.96,17.44-2.27C946.71,438.59,942.74,439.84,940.03,440.08 M878.26,441.24
		C878.77,441.76,878.77,441.76,878.26,441.24 M1232.9,444.8c-2.39,0.39-5.15,0.33-7.03,2.09c-1.55,1.95-1.23,5.13,0.38,6.96
		c2.87,1.75,6.76,2.22,8.42,5.55c19.51,32.79,39.02,65.58,58.49,98.4c6.15-0.64,12.29-1.39,18.45-2
		c-1.39-12.74-2.57-25.54-4.28-38.24c-14.6-25.46-29.89-50.56-44.6-75.97C1252.77,442.53,1242.85,443.78,1232.9,444.8
		 M889.03,446.03c-2.58,0.38-5.18,0.88-7.8,0.62c-0.1,0.58-0.31,1.75-0.41,2.33l0.16,0.79c10.28-0.91,20.5-2.56,30.81-3.22
		c0.26-1.16,0.54-2.32,0.83-3.47C904.78,444.25,896.85,444.71,889.03,446.03 M795.4,456.2c-0.06,0.63-0.18,1.87-0.24,2.49
		c-0.17-0.59-0.5-1.77-0.67-2.36c-17.84,2.22-35.72,4.04-53.58,6.11c-3.59,0.48-7.3,0.47-10.75,1.66
		c-4.41-0.26-8.76,0.58-13.12,1.02c-15.78,1.73-31.53,3.66-47.32,5.24c-0.3,0.54-0.9,1.64-1.19,2.18l0.12-2.11
		c-11.23,1.5-22.51,2.58-33.76,3.89c-3.91,0.32-7.78,0.97-11.58,1.92c0.56,0.96,1.12,1.93,1.67,2.91c0.36-0.74,0.73-1.47,1.09-2.21
		c3.02,1.93,6.6,0.51,9.89,0.34c6.06-0.87,12.27-0.91,18.21-2.53c5.66,0.14,11.25-0.85,16.87-1.41c26.97-3.02,53.93-6.04,80.9-9.06
		c3.18-0.38,6.44-0.49,9.51-1.51c1.56,0.05,3.13,0.07,4.69-0.08c37.03-4.13,74.04-8.36,111.07-12.41c1.73,0.05,2.71-1.81,2.12-3.36
		C851.35,449.96,823.4,453.37,795.4,456.2 M1150.21,464.23c-9.09,13.29-10.83,30.12-9.85,45.81c1.29,16.95,5.55,34.55,16.56,47.94
		c7.05,8.71,17.9,14.12,29.15,14.15c-0.33-3.02-0.65-6.03-1-9.04c-3.88-1.53-6.96-4.88-7.33-9.14c-3.21-28.34-6.28-56.71-9.32-85.06
		c-0.68-4.37,1.62-8.47,5.17-10.88c-0.33-3-0.66-5.99-0.99-8.98C1163.58,451.12,1155.39,456.53,1150.21,464.23 M1178.25,448.34
		c0.28,3.05,0.62,6.09,1,9.14c4,1.45,7.02,5.01,7.35,9.32c3.17,28.09,6.18,56.2,9.25,84.3c0.87,4.62-1.58,8.88-5.19,11.57
		c0.39,2.93,0.71,5.87,1,8.82c9.54-2.19,18.1-8.16,23.28-16.48c8.78-13.9,10.13-31.08,8.79-47.09c-1.59-16.51-6.1-33.62-17.22-46.39
		C1199.51,453.35,1189.03,448.46,1178.25,448.34 M1099.25,459.72c-8.61,37.06-16.84,74.21-25.36,111.3
		c-1.01,3.67,0.07,7.45,0.36,11.15c9.92-1.07,19.83-2.19,29.75-3.28c8.41-36.64,16.76-73.29,25.2-109.92
		c1.03-4.12-0.29-8.33-0.56-12.46C1118.84,457.59,1109.06,458.74,1099.25,459.72 M1063.8,463.81c0.96,10.76,2.18,21.51,3.5,32.23
		c-0.01,3.2,4.87,4.45,6.16,1.46c1.24-4.54,1.26-9.42,3.35-13.72c2.65-6.54,8.24-11.46,14.71-14.06c0.64-3.12,1.33-6.22,2.02-9.32
		C1083.63,461.6,1073.68,462.41,1063.8,463.81 M1373.42,469.87c-0.4,5.33-2.22,11.01-7.01,13.96c0.33,3.1,0.67,6.21,1.07,9.31
		c5.53,1.8,8.38,7.32,9.97,12.52c0.84,2.15,1.6,5.49,4.52,5.46c2.64-0.03,3.21-3.12,2.89-5.18c-1.35-12.8-2.8-25.59-4.17-38.38
		c-0.22-1.98-1.15-4.85-3.64-4.55C1373.72,463.34,1373.82,467.38,1373.42,469.87 M562.57,470.39c-0.56,1.47-1.11,2.97-1.03,4.58
		c0.92-0.18,1.84-0.36,2.76-0.53c2.88,1.22,6.12,0.95,9.19,1.1c1.15-2.03,2.4-1.27,3.58,0.42c0.48-0.52,1.43-1.55,1.91-2.07
		c0.4-1.53,0.78-3.06,1.15-4.58C574.35,470.7,568.46,471.03,562.57,470.39 M555.58,471.36c-0.22,1.48,2.33,1.24,2.83,0.26
		C558.64,470.13,556.08,470.38,555.58,471.36 M510.9,476.27c-5.29,0.68-10.75,0.76-15.8,2.7c-4.21-0.61-8.44-0.14-12.51,1.05
		c0.63,0.41,1.88,1.24,2.51,1.66c-0.1,0.26-0.28,0.79-0.37,1.06c-1-0.51-1.99-1.01-2.99-1.51l0.17,1.75
		c-2.48-0.99-4.87-0.35-6.97,1.12c-0.49-0.37-1.47-1.1-1.96-1.47c-1.67,1.6-2.84,1.41-3.51-0.54c-2.6-0.1-5.2,0.02-7.77,0.42
		c-0.87,0.67-1.75,1.32-2.65,1.96c0.05-3.15-2.19-1.91-3.98-1.28c-0.22,0.42-0.66,1.27-0.88,1.7c-5.36-3.29-11.65-0.43-17.44-0.26
		c0.5,4.15,0.97,8.3,1.38,12.46c0.71,0.45,1.42,0.92,2.14,1.38c1.15-1.46,2.52-2.6,4.46-1.73c0.15-1.63,0-3.49,1.11-4.83
		c1.4-1.9,3.93-2,6.05-2.33c9.49-0.98,18.94-2.2,28.44-3.1c0.27-0.26,0.82-0.79,1.09-1.05c1.69,0.63,3.94,1.06,4.81-1.02
		c2.74,0.21,5.48,0.56,8.23,0.74c-0.38-1.1-0.69-2.21-0.93-3.35c-0.76,0.14-1.51,0.29-2.25,0.44c-1.37-0.31-2.75-0.54-4.13-0.71
		c0.05-0.33,0.16-0.98,0.21-1.31c2.21,2,5.11,0.26,7.71,0.67c0.68,1.23,1.21,2.53,1.81,3.82c2.23-0.9,4.51-1.68,6.7-2.69
		c-0.04-0.44-0.14-1.32-0.19-1.77c0.88,1.65,2.61,2.75,4.45,2.96c13.95-1.19,27.8-3.34,41.76-4.36c-0.22-0.73-0.67-2.18-0.9-2.91
		c0.65,0.06,1.94,0.17,2.59,0.23l-1.96,0.64c0.66,0.69,1.34,1.36,2.02,2.04c0.24-0.68,0.72-2.04,0.96-2.72
		c0.67,1.45,1.95,2.06,3.59,2.08c-0.43-0.57-1.29-1.69-1.73-2.26c2.22,1.1,4.56,2,7.09,1.55c-1.04-1.74-2.89-2.6-4.6-3.51
		c-0.97,0.31-1.94,0.61-2.9,0.93c0.17-1.16,0.15-3.54-1.61-3.17C538.38,473.04,524.65,474.81,510.9,476.27 M968.24,474.05
		c0.3,3.09,0.64,6.17,1.04,9.25c4.36,1.36,7.87,4.94,8.46,9.58c1.36,9.3,2.35,18.67,3.08,28.03c0.58,4.48-1.81,9-6.35,10.15
		c0.3,2.89,0.62,5.78,0.9,8.68c3.11,0.73,6.17,2.43,7.24,5.65c4.55,12.61,1.06,27.51,8.8,39.09c6.46,9.96,22.55,9.63,29.56,0.51
		c2.95-3.74,5.4-8.17,5.8-12.99c0.35-2.63-1.82-5.93-4.7-5.48c-2.22,1.14-2.29,4.58-4.77,5.3c-0.18-0.32-0.53-0.94-0.71-1.26
		c-2.09-9.63-0.42-20.51-6.19-29.05c-4.56-6.64-13.1-8.26-20.59-8.82c5.82-2.67,11.64-6.12,15.14-11.67
		c4.81-7.37,4.8-16.73,3.08-25.07c-1.56-8.21-6.36-16.11-14-19.92C986.09,471.81,976.8,473.13,968.24,474.05 M1237.35,474.07
		c2.21,21.02,4.62,42.03,6.84,63.06c0.21,4.92,0.05,10.21-2.45,14.6c-1.61,2.83-6.17,4.33-5.06,8.24c0.33,2.99,3.72,3.83,6.25,3.38
		c5.83-0.71,11.72-1.04,17.5-2.12c4.01-0.71,4.38-6.98,0.68-8.36c-6.58-2.82-8.71-10.35-9.74-16.8
		c-1.64-14.71-3.25-29.43-4.83-44.15c-0.12-1.49-0.47-2.97-1.28-4.24C1242.64,483.13,1240.02,478.58,1237.35,474.07 M929.98,478.35
		c-3.22,0.13-5.13,3.78-3.88,6.64c0.94,2.83,4.52,2.67,6.53,4.39c1.08,1.28,1.05,3.06,1.35,4.64c3.15,28.69,6.27,57.39,9.43,86.08
		c0.1,1.6,0.35,3.27-0.16,4.84c-1.36,1.79-3.61,2.59-5.05,4.28c-1.63,2.87,0.26,7.45,3.89,7.28c10.63-0.87,21.21-2.34,31.83-3.38
		c1.98-0.31,4.13-0.22,5.96-1.17c3.2-1.77,2.76-7.51-0.89-8.47c-2.66-0.69-5.23-2.39-5.05-5.47c-3.83-34.33-7.53-68.68-11.3-103.02
		C951.71,475.59,940.86,477.21,929.98,478.35 M612.29,477.11C612.52,480.43,615.26,475.53,612.29,477.11 M583.05,480.14
		c-23.93,2.57-47.82,5.58-71.76,7.93c-0.06,0.49-0.18,1.48-0.24,1.97l-0.62-0.26l0.42-1.73c-1.94-0.03-3.07,0.81-3.36,2.54
		c-0.47,0.14-1.41,0.42-1.88,0.57c2.41,0.81,4.94,0.16,7.38-0.12c8.02-1.39,16.28-1.22,24.23-2.99c3.38-1.66,7.14-0.52,10.72-0.91
		c17.94-2.01,35.88-4.01,53.81-6.06c-0.24-0.49-0.72-1.49-0.96-1.99c0.59-0.2,1.77-0.6,2.37-0.81
		C596.42,478.38,589.74,479.51,583.05,480.14 M614.81,479.82c2.42,0.39,4.96,0.25,6.63-1.78
		C619.02,477.72,616.77,478.47,614.81,479.82 M611.39,479.02C611.58,482.34,614.35,477.42,611.39,479.02 M885.11,483.27
		c0.32,3.03,0.64,6.07,1.06,9.09c5.47,0.59,10.85,2.78,14.69,6.8c4.52,4.34,6.72,10.3,9.23,15.87c1.38,2.96,6.57,1.15,6.15-1.98
		c-0.9-10.55-2.28-21.05-3.34-31.58c-2.65,0.29-5.26,0.81-7.82,1.55c0.22,0.96,0.44,1.92,0.67,2.89c-3.3-1.2-6.8-1.65-10.25-2.19
		c1.07-2.18,3.62-0.77,5.44-0.99c0.25-0.34,0.76-1.03,1.01-1.37C896.35,482.14,890.71,482.59,885.11,483.27 M903.15,481.14
		C903.24,484.44,906.21,479.66,903.15,481.14 M846.95,487.51c-3.15,0.11-5.16,3.55-4.04,6.43c0.8,3.01,4.5,2.9,6.59,4.59
		c0.98,1.23,1.09,2.87,1.34,4.36c3.15,28.74,6.27,57.49,9.44,86.23c0.11,1.59,0.34,3.24-0.07,4.82c-1.2,1.87-3.46,2.66-4.97,4.24
		c-1.91,2.85,0.05,7.71,3.78,7.5c11.14-0.94,22.23-2.46,33.36-3.55c-4.16-39.39-8.66-78.74-12.83-118.13
		C868.67,484.95,857.81,486.29,846.95,487.51 M823.75,488.74c-1.46,2.37-2.49,5.46-5.74,5.8c-6.01-3.75-13.59-3.61-20.46-4.09
		c0.27,2.02,0.54,4.05,0.87,6.07c0.72-0.39,2.18-1.17,2.9-1.57c-1.12,1.42-3.35,2.29-3.05,4.46c3.61,0.29,7.32,0.89,10.43,2.88
		c7.3,4.47,11.74,12.28,14.77,20.06c1.3,3.11,1.84,6.56,3.65,9.45c1.24,2.03,4.57,2.2,5.96,0.24c1.19-1.82,0.79-4.12,0.66-6.15
		c-1.23-10.98-2.43-21.96-3.6-32.95c-0.22-1.35-0.28-2.75-0.9-3.98C828.29,486.86,824.87,486.76,823.75,488.74 M496.1,489.84
		c-2.74,0.21-5.5,0.45-8.18,1.09l-1.4,0.51c-1.08-0.13-2.15-0.26-3.23-0.38l0.44,2.38c-0.6-0.48-1.8-1.43-2.4-1.9
		c-0.56,0.04-1.69,0.12-2.25,0.17c0.25,0.86,0.72,1.59,1.39,2.18l-0.41,0.99c2.59-0.42,5.21-0.69,7.83-1
		c2.31-0.21,4.74,0.01,6.95-0.82c1.86-0.19,3.73-0.37,5.6-0.52c0.2-0.71,0.6-2.13,0.8-2.85
		C499.53,489.67,497.81,489.72,496.1,489.84 M503.47,491.09C503.49,494.41,506.52,489.65,503.47,491.09 M786.98,493.34
		c-4.28-0.33-7.64,2.95-10.43,5.77c-1.65,1.53-4.22,2.9-4.39,5.38c5.19,2.28,11.27,0.2,16.17,3.44c0.24-4.16,4.55-6.35,4.75-10.36
		c-0.7,0.06-2.1,0.16-2.79,0.21l-0.01-0.32c3.68,0.07,1.56-4.11,1.77-6.35C790.46,492.06,788.99,493.61,786.98,493.34 M464.87,493.4
		c-0.97,0.01-1.7,0.68-2.5,1.12c-4.07-1.2-8.29,0.38-12.42,0.55c0.06,0.75,0.18,2.24,0.24,2.98c8.14-0.76,16.24-1.91,24.39-2.59
		c-0.05-0.3-0.16-0.89-0.21-1.18c1.57-0.72,3.13-1.45,4.66-2.24C474.29,492.21,469.58,492.85,464.87,493.4 M440.62,498.86
		c-0.61-0.09-1.82-0.28-2.42-0.37c0.85,5.56,1.38,11.15,1.96,16.74c1.89-0.07,3.79,0.03,5.64,0.49c-0.34,0.81-1.04,2.43-1.38,3.23
		c-1.36-0.58-2.71-1.19-4.05-1.77c6.21,54.54,12.24,109.09,18.36,163.64c2.08-1.61,4.14-3.23,6.18-4.87
		c-5.01-44.63-9.99-89.25-15-133.87c-0.23-1.3-0.06-2.96-1.4-3.69c0.2-0.31,0.58-0.93,0.77-1.24c-0.9-7.97-1.28-16.07-3.03-23.91
		c0.3-4.54-0.72-9.02-1.03-13.54C443.82,498.33,442.25,496.91,440.62,498.86 M735.08,499.97c-4.81,0.93-10.21,0.11-14.52,2.84
		c5.22-0.91,10.68,0.25,15.72-1.68c3.27-1.42,6.85-0.32,10.26-0.3C743.35,497.93,738.87,499.84,735.08,499.97 M689.55,505.61
		c0.05,0.79,0.16,2.38,0.21,3.18c-0.52-1.19-0.86-2.5-1.8-3.43c-6.4,0.31-12.75,1.3-19.12,1.95c-2.67,0.18-6.25,1.42-5.94,4.73
		c-0.32,3.46,3.64,4.42,5.87,6.08c3.46,1.59,4.9,5.31,6.79,8.35c18.52,31.2,37.09,62.38,55.62,93.58c6.15-0.66,12.3-1.36,18.45-2.02
		c-1.27-12.07-2.63-24.13-3.92-36.2c-0.07-2.27-1.45-4.12-2.54-6c-10.12-16.81-19.75-33.92-30.11-50.58
		c-0.51-1.22-1.62-1.93-2.61-2.68c0.15-0.31,0.45-0.92,0.6-1.23c-2.01-3.19-3.86-6.48-5.82-9.69c-1.83-0.16-3.66-0.36-5.45-0.74
		l1.6-1.67c-0.38-0.44-1.13-1.32-1.5-1.76C696.13,507.71,693.33,503.27,689.55,505.61 M770.13,506.56
		c-1.31,2.04-2.53,4.15-3.49,6.38c2.36,0.09,4.75-0.17,6.83-1.39c0.87,0.73,1.74,1.46,2.62,2.2c3.75-0.84,7.63-0.81,11.45-0.54
		c-3.32,2.04-7.46,1.73-10.9,3.47c-3.82,1.97-8.2,1.83-12.37,1.81c-4.57,13.25-5.27,27.62-3.35,41.44
		c2.19,15.24,7.66,30.52,18.12,42.08c6.64,7.43,16.2,12.74,26.4,12.19c-0.31-2.97-0.64-5.92-0.93-8.88
		c-6.82-3.41-7.46-11.76-8.08-18.44c-1.98-18.26-3.99-36.51-5.98-54.76c-0.68-7.36-1.91-14.67-2.09-22.06
		c-1.93-0.06-3.85-0.05-5.77,0.06c-0.94-1.23-1.82-2.5-2.65-3.79c-2.05,0.78-4.11,1.55-6.15,2.34
		C772.95,507.37,771.54,506.92,770.13,506.56 M1392.16,511.18c-1.46,3.86-1.61,8.08-3.18,11.92c-2.64,7.67-8.47,14.47-16.4,16.85
		c0.29,3,0.62,5.99,0.92,8.99c9.52-0.94,19.01-2.1,28.53-3.09c-1.03-10-2.2-19.97-3.23-29.96c-0.27-1.85-0.27-3.87-1.36-5.47
		C1396.13,508.57,1392.79,508.87,1392.16,511.18 M726.02,512.11c1.16,1.31,2.45,2.59,3.05,4.3c0.98-0.87,1.99-1.71,3.01-2.53
		c-1.04-1.1-2.09-2.2-3.13-3.3C727.96,511.07,727,511.6,726.02,512.11 M603.27,515.29c-0.09,3.59-1.13,7.29,0.22,10.77
		c1.28,3.96,2.16,8.07,3.7,11.94c0.48,0.13,1.45,0.38,1.93,0.51c-0.44,0.23-1.32,0.68-1.76,0.91c5.32,17.38,10.3,34.86,15.49,52.28
		c-5.06,0.57-10.11,1.11-15.16,1.7c-0.23,3.1-0.47,6.2-0.72,9.3c6.05-0.64,12.08-1.35,18.13-1.97c1.39,4.56,3,9.05,4.29,13.64
		c0.48,2.09,1.23,4.73-0.5,6.47c-1.38,1.85-3.99,3.39-3.46,6.06c-0.12,2.98,2.94,4.73,5.64,4.13c11.01-1.08,22-2.39,33-3.6
		c2.44-0.19,5.7-1.45,5.26-4.48c0.1-4.86-6.57-4.55-7.57-8.85c-10.41-34.06-20.52-68.24-30.98-102.29
		C621.65,512.2,612.26,513.18,603.27,515.29 M898.75,517.79c-1.27,6.53-1.28,14.67-7.82,18.49c0.3,3.11,0.64,6.22,1.03,9.33
		c5.81,1.93,8.58,7.82,10.25,13.25c0.71,2.1,1.93,5.36,4.77,4.65c2.54-0.36,2.56-3.54,2.36-5.5c-1.5-13.02-2.73-26.08-4.37-39.08
		C905.05,515.36,899.7,514.11,898.75,517.79 M733.03,517.88c-0.78-0.13-2.34-0.4-3.12-0.53c1.05,2.62,1.87,5.33,2.23,8.14
		c1.03,0.2,2.06,0.45,3.07,0.77c-0.74-0.04-2.2-0.13-2.93-0.17c1.03,7.95,1.74,15.94,2.69,23.9c0.15,2.1,1.43,3.83,2.41,5.61
		c2.24,3.78,4.38,7.62,6.5,11.48c-0.57-9.38-1.97-18.69-2.85-28.04c-0.4-2.7-0.14-5.67-1.79-8c0.97-4.42,0.13-9.07,0.21-13.57
		C738.13,515.66,734.92,517.29,733.03,517.88 M527.51,522.8c0.3,2.96,0.63,5.93,0.89,8.9c1.84,0.66,3.66,1.38,5.47,2.13
		c2.36,3.65,3.81,7.82,4.17,12.17c2.62,23.82,5.27,47.64,7.8,71.48c0.66,5.53-0.35,12.6-6.37,14.74c0.29,3.02,0.62,6.04,1.06,9.06
		c11.33-1.63,21.02-9.29,26.6-19.07c8.61-14.71,9.4-32.69,6.28-49.09c-2.73-14.76-7.67-30.02-18.61-40.8
		C547.72,525.21,537.48,521.63,527.51,522.8 M488.86,527.28c-2.8,0.15-4.57,3.06-3.69,5.69c0.31,3.2,3.94,3.55,6.22,4.79
		c1.61,1.4,1.58,3.75,1.95,5.7c3.1,29.2,6.49,58.38,9.48,87.59c1.17,4.97-6.95,4.98-5.88,9.94c-0.03,2.68,2.4,4.87,5.09,4.31
		c10.92-0.99,21.8-2.46,32.72-3.48c-4.14-39.44-8.63-78.84-12.84-118.26C510.89,524.79,499.85,525.84,488.86,527.28 M594.69,599.11
		c-1,7.73-0.81,15.97-4.53,23.05c-1.2,2.42-3.49,3.91-5.57,5.49c-3.29,2.05-1.45,8.03,2.45,7.98c6.39-0.05,12.74-1.17,19.1-1.82
		c2.58-0.06,5.34-2.06,4.55-4.95c-0.18-3.59-4.22-4.3-6.66-5.94c-3.6-2.29-3.54-7.14-3.36-10.91c1.78-19.03,4.05-38.01,5.79-57.04
		c-1.29-6.16-3.53-12.1-5.13-18.19C598.65,557.49,596.98,578.34,594.69,599.11 M675.38,536.72c2.2,20.41,4.44,40.82,6.69,61.23
		c0.45,4.91,0.27,10.04-1.6,14.67c-1.08,2.72-3.71,4.25-5.52,6.42c-1.37,2.86,0.62,6.94,4.08,6.61c6.53-0.46,13.09-1.09,19.54-2.21
		c3.99-0.86,4.14-7.1,0.4-8.41c-6.27-2.69-8.37-9.8-9.49-15.93c-1.59-13.7-3.03-27.42-4.53-41.12c-0.38-2.74-0.21-5.7-1.73-8.13
		C680.62,545.47,678.28,540.92,675.38,536.72 M1131.37,541.03c-1.36,6.73-2.45,13.92-6.83,19.47c-3.22,4.12-8.09,6.35-12.75,8.38
		c-0.71,3.13-1.45,6.26-2.17,9.39c10.64-1.14,21.27-2.41,31.92-3.48c-1.09-10.62-2.36-21.23-3.55-31.84
		c-0.16-1.86-0.8-4.45-3.06-4.61C1133.16,537.95,1131.56,539.29,1131.37,541.03 M805.99,551.11c-4.73,0.14-5.25,7.66-0.95,8.83
		c2.12,0.85,5.96,0.39,6.23,3.48c1.31,10.5,2.44,21.04,3.47,31.57c0.53,3.81-1.37,7.51-4.62,9.49c0.27,3.01,0.6,6.02,0.93,9.03
		c12.35-1.93,23.34-10.06,29.91-20.5c-0.85-10.69-2.4-21.33-3.35-32.01c-0.32-3.2,3.64-4.82,3.53-7.99
		c0.19-2.42-1.12-5.88-4.11-5.36C826.68,548.71,816.31,549.77,805.99,551.11 M916.58,563.83c-1.44,4.3-1.73,8.94-3.62,13.12
		c-2.78,7.11-8.44,13.27-15.89,15.48c0.31,3.01,0.64,6.02,0.95,9.03c9.51-1,19.01-2.1,28.53-3.12c-1.14-10.45-2.29-20.9-3.42-31.36
		c-0.27-1.76-0.43-4.05-2.26-4.93C919.25,561.1,917.05,562.04,916.58,563.83 M1409.14,579.64c-1.21,0.04-2.23,0.69-3.02,1.53
		c0.14,1.45,1.73,2.11,2.69,3.02c9.84-0.96,19.66-2.21,29.51-3.25c-0.15-1.51-0.29-3.01-0.41-4.5
		C1428.31,577.49,1418.72,578.57,1409.14,579.64 M1373.08,583.62c1.04,0.81,2.05,1.59,3.12,2.42c-2.77-0.13-5.76,0.23-7.53,2.59
		c10.35-0.87,20.64-2.34,30.99-3.31c0.73-0.85,1.48-1.7,2.23-2.54c1.2-0.34,2.76-0.3,3.33-1.69l0.23-0.8
		C1394.63,580.92,1383.89,582.72,1373.08,583.62 M1348.03,586.54c-0.48,1.41-1.45,2.51-2.67,3.33c0.75-1.15,1.49-2.27,2.33-3.37
		c-2.85,0.36-5.69,0.67-8.53,0.97c0.39,0.49,1.17,1.47,1.56,1.96c-0.64,0.24-1.93,0.73-2.58,0.97c-0.35,1.38-1.8,1.62-2.86,2.25
		c8.33-1.21,16.7-2.06,25.07-2.95c0.68-1.58,1.43-3.13,2.21-4.66c1.39,0.62,2.82,1.28,4.24,1.93l-1.08-1.85
		c1.66,0.48,3.38,0.42,4.62-0.91C1362.87,584.7,1355.45,585.68,1348.03,586.54 M1364.31,588.6c0.62,1.28,1.3,1.31,2.05,0.07
		C1365.68,587.34,1365,587.32,1364.31,588.6 M1285.65,593.47c-0.7,1.34-1.57,2.56-2.59,3.67c1.33-0.08,2.66-0.15,4.02-0.2
		c2.72,0.72,6.75,1.28,8.52-1.39c3.75-2.38,8.33,0.58,11.94-2.04c-1.58-0.03-3.14-0.06-4.7-0.1c0.2-2.17,2.91-1.4,4.31-2.12
		C1299.94,591.64,1292.82,592.81,1285.65,593.47 M1268.36,595.47c0.79,1.22,4.65,1.24,5.32-0.28
		C1272.06,594.41,1269.94,594.79,1268.36,595.47 M1258.69,596.47c1.44,1.59,6.19,3.32,5.54-0.28
		C1262.38,596.28,1260.52,596.34,1258.69,596.47 M1243.62,599.81c0.4,0.14,1.21,0.42,1.61,0.57c-0.08,0.72-0.25,2.18-0.33,2.9
		c1.65-0.37,3.31-0.76,4.95-1.21c0.63-0.05,1.89-0.14,2.52-0.19c-0.8-0.6-1.59-1.19-2.36-1.79c-0.21-0.61-0.63-1.83-0.84-2.44
		C1247.05,597.33,1245.35,598.87,1243.62,599.81 M1253.15,600.55c-1.15,1.47,1.67,2.31,2.54,1.28
		C1256.72,600.37,1253.97,599.5,1253.15,600.55 M863.06,640.84c-2.96,0.33-5.95,0.55-8.82,1.35c-5.46,0.02-10.87,0.94-16.29,1.48
		c-17.25,1.88-34.48,3.97-51.75,5.71c0.07,0.81,0.22,2.43,0.29,3.24c-0.62,0.03-1.85,0.09-2.47,0.11c0.49-0.34,1.45-1.03,1.94-1.38
		c-0.44-0.42-1.33-1.25-1.77-1.66c-40.64,4.6-81.3,9.05-121.93,13.71c0.13,0.83,0.4,2.48,0.54,3.31c-2.1-0.79-6,0.4-6.33-2.67
		c-1.68,0.15-3.35,0.31-5.02,0.44c0.08,0.48,0.23,1.45,0.31,1.93c-1.07-0.4-2.13-0.79-3.18-1.18c-10.47,0.79-20.94,2.03-31.39,3.12
		c0.05,0.75,0.14,2.26,0.19,3.01c-0.5,0.13-1.5,0.38-2,0.5l0.37-3.4c-0.67,0.61-2.01,1.83-2.67,2.44c0.21-0.51,0.64-1.52,0.85-2.03
		c-9.09,0.8-18.13,2.03-27.21,2.92c-0.45,1-0.91,2-1.37,3c-0.04-0.69-0.11-2.06-0.14-2.74c-3.79,1.91-8.19,0.06-12.21,1.34
		c-0.3,1.19-0.86,2.24-1.69,3.14c0.04-0.65,0.11-1.96,0.15-2.61l-1.27-0.23c0.07,0.67,0.21,2.02,0.28,2.69l-1.58,0.24
		c-0.05-0.62-0.15-1.86-0.2-2.47c-8.65,0.45-17.24,1.68-25.85,2.62c-0.29,1.56-0.57,3.14-0.85,4.72c1-0.13,2.99-0.39,3.99-0.51
		c-0.03-0.76-0.1-2.27-0.13-3.02c1.47,0.5,2.95,1.02,4.43,1.51c3.84-2.35,8.6-2.29,12.72-0.76c8.69-0.83,17.4-1.37,26.06-2.53
		c7.38-1.02,14.88-1.25,22.17-2.87c6.48,0.12,12.87-1.34,19.34-1.7c0.31-0.85,0.63-1.69,0.95-2.52c-0.11,0.6-0.33,1.8-0.44,2.4
		c11.26-1.18,22.51-2.73,33.76-3.81c-0.04-0.73-0.12-2.2-0.16-2.93c0.32,0.98,0.62,1.97,0.9,2.97c22.43-2.81,44.93-5.08,67.39-7.68
		c9.02-1.12,18.1-1.74,27.04-3.42c-0.2-0.46-0.6-1.39-0.8-1.85c2.03,1.14,4.12,2.35,6.52,1.46c-0.16-0.48-0.5-1.43-0.67-1.9
		c0.51-0.5,1.54-1.48,2.05-1.98c0.77,0.28,2.33,0.85,3.11,1.13c-0.01,0.61-0.02,1.82-0.03,2.43c2.42-0.33,4.92-0.48,7.18-1.52
		c1.24,0.14,2.49,0.34,3.74,0.24c33.35-3.67,66.65-7.58,99.99-11.2c1.59,0.17,2.36-0.83,2.58-2.31c0,0.48-0.01,1.43-0.01,1.91
		c2.37-0.17,4.75-0.44,7.09-0.96c21.08-1.72,42.07-4.66,63.13-6.78c1.66-0.29,3.93,0.05,4.43-2.07c1.21,0.37,2.41,0.74,3.63,1.15
		c2.08-0.26,4.15-0.56,6.22-0.94c-0.17-0.69-0.52-2.08-0.69-2.77c0.5,0.95,0.98,1.91,1.46,2.89
		c74.06-8.24,148.11-16.63,222.17-24.87c3.84-0.06,6.28-3.46,9.11-5.58C1087.82,615.61,975.45,628.3,863.06,640.84 M1271.44,609.17
		c0.06,0.49,0.17,1.46,0.22,1.94c-0.71,0.11-2.14,0.32-2.86,0.43c1.79-0.02,3.59-0.09,5.4-0.14
		C1273.28,610.64,1272.35,609.9,1271.44,609.17 M1276.06,610.07C1276.16,613.36,1279.09,608.57,1276.06,610.07 M1082.11,626.1
		c-1.11,0.06-2.13,0.4-3.04,1.03c0.05,0.25,0.16,0.74,0.21,0.98c3.44,0.8,6.37,3.3,9.72,3.92c37.38-4.08,74.75-8.39,112.13-12.52
		c1.1-0.09,2.22-0.4,3.15-1.03c-2.96-0.25-6.03,1.04-8.86-0.16c-0.67,0.06-2.02,0.19-2.7,0.25c2.32-1.93,5.43-2.84,7.09-5.54
		C1160.56,617.18,1121.35,621.84,1082.11,626.1 M1219.74,611.92c0.81,2.66-1.72,3.34-3.42,4.38c-2.3-1.81-4.75-0.15-7.09,0.48
		c-1.27-0.51-2.52-0.98-3.89-0.74c-0.07,0.74-0.2,2.21-0.26,2.95c7.61-0.79,15.24-1.51,22.81-2.68c-0.5-0.61-1.5-1.84-1.99-2.45
		c-0.68,0.14-2.03,0.42-2.7,0.56C1222.03,613.58,1220.88,612.75,1219.74,611.92 M1046.26,630.08c-0.01,0.54-0.02,1.63-0.03,2.18
		c2.72,0.3,5.2,1.52,7.1,3.49c8.6-0.51,17.14-1.65,25.71-2.54c-0.49-2.02-1.97-2.28-3.73-1.66c-0.11-1.05-0.2-2.09-0.3-3.12
		l1.85,0.18l0.2-0.68l-0.04-0.71l-0.31-0.5C1066.56,627.83,1056.42,629.11,1046.26,630.08 M999.06,635.45
		c0.13,0.81,0.26,1.62,0.41,2.44c-0.26-0.03-0.76-0.08-1.02-0.1c-0.03-0.57-0.1-1.69-0.13-2.25c-40.53,4.71-81.13,8.83-121.63,13.8
		c0.73,0.17,2.21,0.52,2.94,0.7c-0.59,1.75-1.18,3.51-1.75,5.28c-0.54-1.45-3.2-1.45-3.8-0.07c0.36,1.43,2.57,1.21,3.61,0.65
		c1.72-0.07,3.46-0.28,5.12-0.8c1.98-0.17,3.96-0.46,5.9-0.94c-0.17-0.54-0.53-1.63-0.71-2.17c1.77-0.44,3.57-0.7,5.41-0.62
		c-0.08-0.5-0.22-1.49-0.3-1.99c0.6,0.02,1.8,0.05,2.4,0.07c0.16,0.38,0.47,1.13,0.63,1.51c2.69,0.22,5.33,0.84,7.98,1.4
		c5.63,0.4,11.17-1.34,16.8-1.11c0.15-0.97,0.33-1.92,0.56-2.86c0.23-0.06,0.7-0.18,0.93-0.24l0.05,0.44
		c-0.1,0.75-0.02,1.49,0.25,2.22c8.5-1.39,17.2-1.49,25.63-3.34c4.01,1.13,7.05-3.45,10.96-1.44c0.37-0.62,0.75-1.24,1.13-1.86
		c0.12,0.47,0.36,1.41,0.48,1.89c5.18,0.17,10.37-0.82,15.51-1.45l0.67-1.28c2.38,1.99,5.57,0.43,8.29,0.13
		c5.41-0.2,10.8-0.9,16.13-1.82c8.05-0.65,16.14-1.31,24.11-2.7c0.01-0.64,0.03-1.93,0.05-2.57c-0.82,0.03-2.47,0.1-3.29,0.14
		c-0.01-0.69-0.04-2.05-0.05-2.73l0.93,0.11c-0.07,0.42-0.21,1.25-0.29,1.67c1.07,0.28,2.15,0.58,3.23,0.89
		c0.32,0.6,0.97,1.82,1.29,2.43c2.84-0.13,6.02-0.25,8.26-2.24c1.47,1.1,2.9-0.27,4.26-0.86c1.21-0.68,2.48-1.35,3.95-1.03
		c0.77,0.01,2.32,0.05,3.1,0.06c-0.44-0.2-1.33-0.62-1.77-0.82c0.24-1.29,0.44-2.59,0.67-3.87
		C1030.34,632.03,1014.69,633.64,999.06,635.45 M875.23,649.37C875.81,649.92,875.81,649.92,875.23,649.37 M866.07,650.72
		c0.07,0.59,0.21,1.77,0.28,2.36c1.55-0.52,3.14-1.14,3.92-2.7C868.86,650.46,867.47,650.6,866.07,650.72 M835.06,653.84
		c-4.44,0.22-8.77,1.38-13.19,1.6c-1.96,1.65-4.45,1.83-6.73,0.77c-12.48,1.49-25.08,2.23-37.47,4.37
		c4.19,1.28,8.63-0.91,12.79,0.77c-4.82,1.98-10.93,5.3-15.7,1.53c0.74-0.91,1.5-1.81,2.26-2.7c-1.86,0.29-3.72,0.57-5.58,0.84
		c-2.14-0.17-4.27,0.14-6.39,0.32c-2.44,0.17-2.86,1.67-2.03,3.72c-0.33,0.49-0.64,1-0.95,1.51c-0.64-1.83-1.44-4.6-3.96-4.06
		c-17.24,1.76-34.43,3.99-51.68,5.65c0.04,1.21,0.08,2.43,0.13,3.65l-0.47,0.03c0.97-1.74-1.17-2.57-2.21-3.41
		c-0.61,0.37-1.84,1.11-2.45,1.48c-2.67-1.24-5.58-0.42-8.35-0.16c-14.82,1.8-29.71,3.1-44.49,5.18c0.79,1.43,2.29,2.02,3.74,2.61
		c0.26,0.81,0.53,1.62,0.8,2.44c-4.2,0.65-8.46,0.54-12.69,0.95c0.42-1.93,1.4-3.64,2.46-5.27c-10.42,0.73-20.86,1.76-31.1,3.85
		c-0.89,0.94-1.78,1.88-2.69,2.81c-0.47-0.26-1.43-0.78-1.91-1.04c-1.63,0.4-3.29,0.65-4.95,0.88c0-0.55,0.01-1.64,0.01-2.18
		c-7.74,0.97-15.58,1.39-23.2,3.05c0.24,0.78,0.71,2.33,0.95,3.11c-1.35-0.35-2.64-0.85-3.94-1.32c0.61,0.92,1.23,1.84,1.86,2.77
		c1.69-0.59,3.4-1.11,5.1-1.68c-0.21-0.39-0.63-1.17-0.84-1.56c5.73-0.45,11.36,0.99,17.11,0.61c3.16,1.14,6.69,1.92,9.87,0.37
		c3.67,0.56,7.27-0.57,10.92-0.74c2.35-0.3,4.95-0.1,7.03-1.44c-0.45-0.42-1.37-1.26-1.83-1.68c1.28-0.19,2.55-0.41,3.82-0.68
		c-0.26,0.88-0.51,1.76-0.76,2.66c10.56-0.68,21.14-1.95,31.57-3.64c2.22,0.03,4.45-0.11,6.68-0.21l-0.22-1.62
		c0.43,0.34,1.29,1.02,1.72,1.36c1.23-0.63,2.46-1.26,3.69-1.88c1.66,0.46,3.34,1.17,5.12,0.83c16.56-1.81,33.11-3.8,49.68-5.56
		c0.24-0.42,0.71-1.26,0.95-1.68l0.02,1.51c22.91-2.54,45.85-4.96,68.72-7.78c0.07-0.64,0.2-1.91,0.27-2.54
		c0.6,0.71,1.79,2.13,2.38,2.84c0.65-0.85,1.29-1.71,1.96-2.54c4.61,1.67,9.4,0.81,14.14,0.35c2.3,0.21,4.55-0.35,6.7-1.13
		c-0.08-0.3-0.23-0.89-0.31-1.18c0.1-1.3,0.22-2.6,0.33-3.89c1.36-0.2,2.73-0.37,4.1-0.51c-0.53,1.82-1.07,3.63-1.61,5.46
		c12.05-1.25,24.16-2.25,36.09-4.32c-3.3-0.25-6.61-1.44-9.9-0.98c-0.35-0.15-1.04-0.44-1.39-0.59c-1.23-0.17-2.46-0.39-3.67-0.52
		c0.23-0.6,0.7-1.81,0.93-2.41C842.53,652.76,838.77,653.21,835.06,653.84 M865.22,655.28c-1.39,0.66-1.42,1.32-0.12,1.98
		C866.48,656.6,866.52,655.94,865.22,655.28 M534.29,678.46c0.67-0.01,2.02-0.05,2.7-0.07c-0.04,0.65-0.12,1.95-0.16,2.6
		c-0.55-0.12-1.65-0.34-2.2-0.45c-0.1-1.83-0.97-2.78-2.6-2.87c0.49,0.6,1.46,1.78,1.94,2.38c-1.89,2.44-2.27-0.76-2.6-2.24
		c-1.29,0.53-2.57,1.1-3.84,1.69c0.28,0.69,0.82,2.07,1.1,2.76c-0.74-0.94-1.28-2.03-1.77-3.1c-1.79-0.21-3.6-0.26-5.39-0.13
		l-0.11-0.47c-0.22,1.67,0.32,4.19-2.2,3.92c-0.19-0.76-0.57-2.28-0.76-3.03c-2.59,0.31-5.17,0.6-7.74,1.02
		c1.24,1.03,2.59,1.3,4.06,0.79c0.58,2.15,2.88,1.83,4.61,1.74c2.43,1.44,5.22,0.77,7.79,0.13c4.94-0.42,9.78-1.67,14.78-1.54
		c-0.19-1.57-0.39-3.14-0.59-4.69C538.95,677.26,536.35,677.06,534.29,678.46 M482.83,683.57c0.84,1.14,2.02,1.79,3.44,2
		c0.06,0.48,0.18,1.43,0.24,1.9c0.91,0,1.81,0.01,2.72,0.03c0.5-1.59,1.03-3.14,1.57-4.7C488.12,682.82,485.46,683.13,482.83,683.57
		 M492.78,681.86c-0.07,0.72-0.19,2.17-0.25,2.89c0.86,0.13,2.6,0.4,3.47,0.53C494.94,684.11,493.87,682.98,492.78,681.86
		 M505.18,684.71c-2.39,0.18-4.8,0.16-7.14-0.41c-0.25,0.48-0.74,1.46-0.99,1.94c5.24-0.43,10.47-1.01,15.72-1.44v-0.53
		c-1.33,0.04-2.67,0.05-4,0.03c-0.02-0.73-0.07-2.2-0.1-2.93C507.09,681.96,505.29,682.71,505.18,684.71 M528.06,690.38
		c3.06-0.74,6.93-0.11,9.04-2.89C534.04,687.77,529.63,686.94,528.06,690.38 M486.32,693.51c1,0.32,2.01,0.65,3.02,0.97
		c0.22,1.42,1.51,2.03,2.54,2.8c0.48-1.14,0.96-2.27,1.45-3.4C491.3,691.92,488.68,693.08,486.32,693.51 M495.28,693.15
		c0.19,1.34,0.91,1.58,2.13,0.71C497.21,692.51,496.5,692.27,495.28,693.15L495.28,693.15z"/>
	<path class="st1" d="M1378.67,379.08c16.1-2.11,32.28-3.67,48.42-5.55c8.12,72.63,16.28,145.26,24.38,217.89
		c-4.75,0.44-9.49,1.47-14.26,0.92c-4.87,1.66-10.05,1.69-15.1,2.37c-4.08,0.35-8.19,1.4-12.28,0.61c0.07-0.81,0.21-2.44,0.28-3.26
		c-1.39,0.55-2.8,1.04-4.2,1.48c1.55,0.52,3.08,1.14,4.21,2.43c-14,1.77-28.05,3.19-42.08,4.8c0.3-1.65,3.78-3.75,1.4-5.23
		c1.58,2.19-0.81,2.71-1.93,3.7c-0.01,0.42-0.03,1.27-0.04,1.69c-4.24,0.21-8.42,0.95-12.64,1.22c-4.54-1.22-9.23-1.55-13.86-2.26
		c-1.41-0.04-2.47-0.96-3.45-1.81c3.16,0.18,6.3,0.67,9.48,0.89c2.54,0.29,5.53-0.23,7.27,2.18c0.23-0.87,0.68-2.63,0.91-3.5
		c3.23-1.1,6.95,1.14,9.85-0.59c-0.7-0.88-1.44-1.69-2.15-2.53c4.41,0.23,8.67-0.96,13.03-1.36c11.03-1.2,22.05-2.5,33.09-3.68
		c0.39,0.49,1.18,1.48,1.57,1.98c-0.04-0.57-0.12-1.69-0.17-2.25c3.19-0.25,6.39-0.55,9.58-0.96l-0.35,1.45l0.64,0.18
		c0.01-0.4,0.04-1.21,0.05-1.61c3.11-0.03,6.15-0.75,9.27-0.72c-0.04,0.39-0.13,1.17-0.18,1.56c1.65,0.63,3.28,1.34,4.94,2
		c-0.42-1.47-0.83-2.92-1.21-4.38c4.26-0.12,11.08-0.76,10.32-6.71c-6.92-62.66-14.04-125.31-21-187.97
		c-0.32-2.51-0.44-5.08-1.18-7.51c-0.94-2.46-3.85-3.35-6.25-2.96c-14.05,1.56-28.09,3.14-42.13,4.74c-2.63,0.43-5.17-0.54-7.71-1
		c-0.15,0.49-0.44,1.48-0.58,1.98c-11.54,1.03-23.02,2.8-34.58,3.57c-8.65,1.33-17.38,2.21-26.09,2.96
		c-3.76,0.58-7.61,1.29-11.34,0.19c0.09-0.45,0.29-1.36,0.39-1.81c-3.43-0.45-6.82-1.12-10.2-1.77c0.55,0.64,1.64,1.92,2.18,2.57
		c-0.44,0.49-1.31,1.47-1.75,1.96c0.75,0.18,2.24,0.55,2.99,0.73c-1.16,0.28-2.31,0.54-3.45,0.8c-1.47-0.81-2.95-1.55-4.45-2.27
		c0.45,0.62,1.34,1.84,1.79,2.45c-10.06,1.21-20.14,2.23-30.2,3.44c-1.19-0.74-2.37-1.48-3.55-2.22l0.35,1.87
		c-0.75-0.17-2.26-0.52-3.01-0.69c-0.21,0.41-0.62,1.23-0.83,1.64c-3.43,0.76-6.94,0.9-10.42,1.27c0.71-0.92,1.54-1.75,2.25-2.68
		c-2.7,0.52-5.59,0.42-7.99,1.9c0.57,0.34,1.7,1,2.27,1.34c-11.84,1.13-23.65,2.56-35.47,3.78c-1.06-0.46-2-1.11-2.96-1.68
		c-2.39-0.44-4.76-1.06-7.11-1.55c1.52,1.34,3.16,2.61,4.76,3.88c-36.75,4.2-73.51,8.25-110.27,12.41
		c-1.43,0.36-2.67-0.17-3.77-1.01c0.12,0.34,0.36,1.04,0.48,1.38c-48.96,5.47-97.91,10.98-146.87,16.47
		c-1.16-0.4-2.32-0.77-3.47-1.12c0.19-0.62,0.56-1.84,0.75-2.46c-2.04,0.26-4.04,0.78-6.03,1.25c2.05,1.06,4.25,1.8,6.42,2.59
		c-2.9,0.34-5.81,0.63-8.7,1c-0.88-0.54-1.75-1.06-2.63-1.57l0.95-1.13c-1.48-0.01-4.44-0.04-5.91-0.05
		c0.43,1.44,1.75,2.16,3.08,2.69l1.02,0.5c-9.46,0.91-18.9,2.04-28.33,3.12c-0.73-0.82-1.46-1.63-2.19-2.44
		c0.02,0.71,0.05,2.11,0.07,2.82c-0.41-0.48-1.22-1.42-1.63-1.89c-2.09,0.2-4.31,0.52-5.46,2.49c-4.94,0.55-10.02,1.02-14.91-0.06
		l0.73,1.61c-20.13,2.39-40.28,4.5-60.41,6.87c-2.22,0.31-4.47,0.47-6.66-0.06c-1.24,0.95-2.79,1.16-4.29,1.3
		c-63.39,6.94-126.72,14.27-190.13,21.26c-1.61,0.39-2.97-0.67-4.31-1.33c0.01,0.6,0.03,1.81,0.03,2.41
		c-0.33-0.44-0.99-1.32-1.33-1.76c-4.32,1.32-8.97,0.58-13.06-1.17c0.27-0.73,0.8-2.18,1.06-2.9c32.85-3.6,65.67-7.35,98.51-11.01
		c4.16-0.39,8.32-1.29,12.51-0.85c-2.6,0.79-5.26,1.37-7.88,2.08c1.04,1.1,2.17,2.12,3.29,3.15c5.15-0.91,10.05-3.12,15.41-2.45
		c1.71-0.68,3.33-1.57,4.69-2.83c-1.21-0.57-2.4-1.15-3.59-1.74c8.19-1.01,16.38-2.31,24.65-2.27c2.19-1.02,4.63-1.13,7-1.4
		l-0.9,1.7c4.47,0.89,9,0.72,13.53,0.81c-0.15-0.53-0.46-1.58-0.62-2.11c-3.41,0.09-6.78-0.53-10.17-0.8
		c43.74-4.29,87.36-9.96,131.1-14.32c-0.75,0.48-2.27,1.44-3.02,1.91c2.71,0.47,5.39-0.3,8.06-0.71c0.83-1.92-1.93-1.82-3.11-2.05
		c2.72,0.06,5.46-0.01,8.19,0c-1.41,0.31-2.87,0.48-4.22,0.95c-0.03,1.99,2.92,1.49,4.21,2.23c0.66-1.23,1.32-2.44,1.99-3.66
		c0.43,0.3,1.27,0.9,1.69,1.2c0.32-0.45,0.95-1.36,1.26-1.81c1.16,2.79,3.24,0.42,4.9-0.38c2.42-0.29,4.86-0.51,7.29-0.09
		c-0.85,2.48-2.62,4.27-5.09,5.1c4.46-0.1,9.32,0.23,12.98-2.83c-2.75-0.97-5.7-0.94-8.57-0.98c2.85-3.88,8,0.84,11.17-2.34
		c1.27-1.32,3.09-1.15,4.76-1.16c3.79-0.96,7.71-1.14,11.58-1.61c16.06-1.8,32.11-3.62,48.18-5.35c-0.79,0.36-1.59,0.71-2.38,1.06
		c-0.03,0.6-0.09,1.82-0.12,2.43c3.44-0.36,6.91-0.42,10.35,0.05c2.74-0.6,5.53-0.65,8.32-0.75c-2.4-1.14-5.04-0.49-7.56-0.54
		c-1.79-1.39-4.08-1.69-6.15-2.38c10.26-1.62,20.64-2.38,30.95-3.67c6.07-0.55,12.1-1.7,18.22-1.71c11.76-2.07,23.74-2.85,35.61-4.2
		l0.52,0.26c0.16,0.33,0.48,0.99,0.64,1.32c0.14,0.15,0.4,0.46,0.54,0.61c0.02-0.48,0.07-1.44,0.1-1.92
		c0.96-0.61,2.02-0.94,3.18-0.98c32.25-3.54,64.49-7.27,96.74-10.8c6.84-0.17,13.58-2.39,20.43-1.78
		c9.49-1.92,19.19-2.52,28.79-3.79c0.39,1.15,0.74,2.36,1.47,3.37c1.77,0.42,4.16,0.92,5.44-0.78c-2.27,0.23-4.92,1.54-6.27-1.07
		c1.7-1.38,3.69-2.27,5.92-2.26c10.58-0.95,21.11-2.68,31.72-2.98c8.02-1.88,16.28-2.2,24.42-3.32c2.94-0.56,5.86,0.26,8.81,0.43
		c0.27-0.38,0.81-1.14,1.08-1.52c2.17-0.31,4.38-0.53,6.57-0.13c9.91-2.19,20.22-2.67,30.31-4c11.12-1.15,22.22-2.66,33.36-3.59
		c0.59,0.17,1.78,0.51,2.37,0.69c0.29-0.39,0.88-1.17,1.17-1.55c1.02,0.91,2.06,1.82,3.12,2.72c1.87-0.91,3.58-2.12,5.3-3.3
		c2.42-0.47,4.77,0.69,6.84,1.84c1.83,0.06,3.68,0.07,5.54,0.08l-0.1,1.68c2.1-0.35,4.13-1.08,5.71-2.57
		c-1.11,0.14-3.32,0.43-4.42,0.57C1378.72,381.35,1378.68,379.83,1378.67,379.08 M1281.3,393.21
		C1279.62,396.2,1284.63,393.43,1281.3,393.21 M1180.16,404.44c0.97,0.71,3.5-0.13,2.95-1.55
		C1182.09,401.97,1179.46,402.93,1180.16,404.44 M1195.47,404.86c1.33,0.69,2.21,0.4,2.62-0.85
		C1196.74,403.34,1195.86,403.63,1195.47,404.86 M1169.34,405.14c-1.72,0.34-1,2.73,0.6,1.73
		C1171.68,406.54,1170.94,404.09,1169.34,405.14 M1153.06,406.6c-0.7,1.34,1.68,2.12,2.51,1.23
		C1156.17,406.52,1153.85,405.79,1153.06,406.6 M1069.21,417.15c-2.97,1.46,1.43,3.18,2.57,1.33
		C1072.92,416.92,1070.12,416.41,1069.21,417.15 M723.54,456.12C723.6,459.43,726.59,454.65,723.54,456.12 M1445.37,589.07
		C1445.43,592.39,1448.37,587.59,1445.37,589.07 M1154.34,416.1c15.22-1.75,30.44-3.47,45.67-5.12c1.93-0.55,3.2,1.12,4.27,2.42
		c-7.3,1.01-14.62,2.17-22,2.2c-7.44,0.97-14.84,2.31-22.33,2.93C1157.72,419.04,1156.14,417.01,1154.34,416.1 M1360.63,430.76
		c9.18-0.92,18.33-2.22,27.53-2.9c1.38,10.7,2.46,21.46,3.58,32.21c0.88,3.35-4.64,5.59-6.15,2.45c-2.59-5.79-4.92-11.98-9.74-16.36
		c-3.82-3.82-9.08-5.64-14.32-6.44C1361.26,436.73,1360.94,433.74,1360.63,430.76 M1321.92,435.12c11-1.42,22.06-2.47,33.08-3.72
		c4.28,39.41,8.66,78.81,12.9,118.22c-10.97,1.12-21.91,2.51-32.88,3.56c-2.93,0.42-5.31-2.43-4.99-5.22
		c-0.1-2.81,2.94-3.75,4.67-5.34c1.84-1.3,1.13-3.84,1.1-5.73c-3.27-29.33-6.32-58.69-9.7-88c0.02-3.69-4.05-4-6.48-5.52
		C1316.91,440.97,1318.04,435.51,1321.92,435.12 M1289.84,438.5c5.09-0.4,10.14-1.34,15.26-1.48c3.47-0.15,5.43,4.15,3.84,6.97
		c-2.09,2.56-5.23,4.38-6.24,7.72c-2.02,5.93-1.06,12.3-0.42,18.39c1.2,11.44,2.63,22.85,3.66,34.3c-3.1-4.8-5.92-9.81-8.58-14.85
		c-1.87-10.15-1.71-20.63-4.14-30.68c-1.06-4.64-3.96-8.8-8.39-10.74c-2.86-1.07-3.93-4.92-2.12-7.34
		C1284.43,438.71,1287.4,438.88,1289.84,438.5 M1232.9,444.8c9.95-1.02,19.87-2.27,29.83-3.21c14.71,25.41,30,50.51,44.6,75.97
		c1.71,12.7,2.89,25.5,4.28,38.24c-6.16,0.61-12.3,1.36-18.45,2c-19.47-32.82-38.98-65.61-58.49-98.4c-1.66-3.33-5.55-3.8-8.42-5.55
		c-1.61-1.83-1.93-5.01-0.38-6.96C1227.75,445.13,1230.51,445.19,1232.9,444.8 M889.03,446.03c7.82-1.32,15.75-1.78,23.59-2.95
		c-0.29,1.15-0.57,2.31-0.83,3.47c-10.31,0.66-20.53,2.31-30.81,3.22l-0.16-0.79c0.1-0.58,0.31-1.75,0.41-2.33
		C883.85,446.91,886.45,446.41,889.03,446.03 M1150.21,464.23c5.18-7.7,13.37-13.11,22.39-15.2c0.33,2.99,0.66,5.98,0.99,8.98
		c-3.55,2.41-5.85,6.51-5.17,10.88c3.04,28.35,6.11,56.72,9.32,85.06c0.37,4.26,3.45,7.61,7.33,9.14c0.35,3.01,0.67,6.02,1,9.04
		c-11.25-0.03-22.1-5.44-29.15-14.15c-11.01-13.39-15.27-30.99-16.56-47.94C1139.38,494.35,1141.12,477.52,1150.21,464.23
		 M1178.25,448.34c10.78,0.12,21.26,5.01,28.26,13.19c11.12,12.77,15.63,29.88,17.22,46.39c1.34,16.01-0.01,33.19-8.79,47.09
		c-5.18,8.32-13.74,14.29-23.28,16.48c-0.29-2.95-0.61-5.89-1-8.82c3.61-2.69,6.06-6.95,5.19-11.57c-3.07-28.1-6.08-56.21-9.25-84.3
		c-0.33-4.31-3.35-7.87-7.35-9.32C1178.87,454.43,1178.53,451.39,1178.25,448.34 M1099.25,459.72c9.81-0.98,19.59-2.13,29.39-3.21
		c0.27,4.13,1.59,8.34,0.56,12.46c-8.44,36.63-16.79,73.28-25.2,109.92c-9.92,1.09-19.83,2.21-29.75,3.28
		c-0.29-3.7-1.37-7.48-0.36-11.15C1082.41,533.93,1090.64,496.78,1099.25,459.72 M1063.8,463.81c9.88-1.4,19.83-2.21,29.74-3.41
		c-0.69,3.1-1.38,6.2-2.02,9.32c-6.47,2.6-12.06,7.52-14.71,14.06c-2.09,4.3-2.11,9.18-3.35,13.72c-1.29,2.99-6.17,1.74-6.16-1.46
		C1065.98,485.32,1064.76,474.57,1063.8,463.81 M1373.42,469.87c0.4-2.49,0.3-6.53,3.63-6.86c2.49-0.3,3.42,2.57,3.64,4.55
		c1.37,12.79,2.82,25.58,4.17,38.38c0.32,2.06-0.25,5.15-2.89,5.18c-2.92,0.03-3.68-3.31-4.52-5.46c-1.59-5.2-4.44-10.72-9.97-12.52
		c-0.4-3.1-0.74-6.21-1.07-9.31C1371.2,480.88,1373.02,475.2,1373.42,469.87 M562.57,470.39c5.89,0.64,11.78,0.31,17.56-1.08
		c-0.37,1.52-0.75,3.05-1.15,4.58c-0.48,0.52-1.43,1.55-1.91,2.07c-1.18-1.69-2.43-2.45-3.58-0.42c-3.07-0.15-6.31,0.12-9.19-1.1
		c-0.92,0.17-1.84,0.35-2.76,0.53C561.46,473.36,562.01,471.86,562.57,470.39 M510.9,476.27c13.75-1.46,27.48-3.23,41.25-4.52
		c1.76-0.37,1.78,2.01,1.61,3.17c0.96-0.32,1.93-0.62,2.9-0.93c1.71,0.91,3.56,1.77,4.6,3.51c-2.53,0.45-4.87-0.45-7.09-1.55
		c0.44,0.57,1.3,1.69,1.73,2.26c-1.64-0.02-2.92-0.63-3.59-2.08c-0.24,0.68-0.72,2.04-0.96,2.72c-0.68-0.68-1.36-1.35-2.02-2.04
		l1.96-0.64c-0.65-0.06-1.94-0.17-2.59-0.23c0.23,0.73,0.68,2.18,0.9,2.91c-13.96,1.02-27.81,3.17-41.76,4.36
		c-1.84-0.21-3.57-1.31-4.45-2.96c0.05,0.45,0.15,1.33,0.19,1.77c-2.19,1.01-4.47,1.79-6.7,2.69c-0.6-1.29-1.13-2.59-1.81-3.82
		c-2.6-0.41-5.5,1.33-7.71-0.67c-0.05,0.33-0.16,0.98-0.21,1.31c1.38,0.17,2.76,0.4,4.13,0.71c0.74-0.15,1.49-0.3,2.25-0.44
		c0.24,1.14,0.55,2.25,0.93,3.35c-2.75-0.18-5.49-0.53-8.23-0.74c-0.87,2.08-3.12,1.65-4.81,1.02c-0.27,0.26-0.82,0.79-1.09,1.05
		c-9.5,0.9-18.95,2.12-28.44,3.1c-2.12,0.33-4.65,0.43-6.05,2.33c-1.11,1.34-0.96,3.2-1.11,4.83c-1.94-0.87-3.31,0.27-4.46,1.73
		c-0.72-0.46-1.43-0.93-2.14-1.38c-0.41-4.16-0.88-8.31-1.38-12.46c5.79-0.17,12.08-3.03,17.44,0.26c0.22-0.43,0.66-1.28,0.88-1.7
		c1.79-0.63,4.03-1.87,3.98,1.28c0.9-0.64,1.78-1.29,2.65-1.96c2.57-0.4,5.17-0.52,7.77-0.42c0.67,1.95,1.84,2.14,3.51,0.54
		c0.49,0.37,1.47,1.1,1.96,1.47c2.1-1.47,4.49-2.11,6.97-1.12l-0.17-1.75c1,0.5,1.99,1,2.99,1.51c0.09-0.27,0.27-0.8,0.37-1.06
		c-0.63-0.42-1.88-1.25-2.51-1.66c4.07-1.19,8.3-1.66,12.51-1.05C500.15,477.03,505.61,476.95,510.9,476.27 M968.24,474.05
		c8.56-0.92,17.85-2.24,25.79,1.98c7.64,3.81,12.44,11.71,14,19.92c1.72,8.34,1.73,17.7-3.08,25.07c-3.5,5.55-9.32,9-15.14,11.67
		c7.49,0.56,16.03,2.18,20.59,8.82c5.77,8.54,4.1,19.42,6.19,29.05c0.18,0.32,0.53,0.94,0.71,1.26c2.48-0.72,2.55-4.16,4.77-5.3
		c2.88-0.45,5.05,2.85,4.7,5.48c-0.4,4.82-2.85,9.25-5.8,12.99c-7.01,9.12-23.1,9.45-29.56-0.51c-7.74-11.58-4.25-26.48-8.8-39.09
		c-1.07-3.22-4.13-4.92-7.24-5.65c-0.28-2.9-0.6-5.79-0.9-8.68c4.54-1.15,6.93-5.67,6.35-10.15c-0.73-9.36-1.72-18.73-3.08-28.03
		c-0.59-4.64-4.1-8.22-8.46-9.58C968.88,480.22,968.54,477.14,968.24,474.05 M1237.35,474.07c2.67,4.51,5.29,9.06,7.91,13.61
		c0.81,1.27,1.16,2.75,1.28,4.24c1.58,14.72,3.19,29.44,4.83,44.15c1.03,6.45,3.16,13.98,9.74,16.8c3.7,1.38,3.33,7.65-0.68,8.36
		c-5.78,1.08-11.67,1.41-17.5,2.12c-2.53,0.45-5.92-0.39-6.25-3.38c-1.11-3.91,3.45-5.41,5.06-8.24c2.5-4.39,2.66-9.68,2.45-14.6
		C1241.97,516.1,1239.56,495.09,1237.35,474.07 M929.98,478.35c10.88-1.14,21.73-2.76,32.66-3.36c3.77,34.34,7.47,68.69,11.3,103.02
		c-0.18,3.08,2.39,4.78,5.05,5.47c3.65,0.96,4.09,6.7,0.89,8.47c-1.83,0.95-3.98,0.86-5.96,1.17c-10.62,1.04-21.2,2.51-31.83,3.38
		c-3.63,0.17-5.52-4.41-3.89-7.28c1.44-1.69,3.69-2.49,5.05-4.28c0.51-1.57,0.26-3.24,0.16-4.84c-3.16-28.69-6.28-57.39-9.43-86.08
		c-0.3-1.58-0.27-3.36-1.35-4.64c-2.01-1.72-5.59-1.56-6.53-4.39C924.85,482.13,926.76,478.48,929.98,478.35 M885.11,483.27
		c5.6-0.68,11.24-1.13,16.84-1.91c-0.25,0.34-0.76,1.03-1.01,1.37c-1.82,0.22-4.37-1.19-5.44,0.99c3.45,0.54,6.95,0.99,10.25,2.19
		c-0.23-0.97-0.45-1.93-0.67-2.89c2.56-0.74,5.17-1.26,7.82-1.55c1.06,10.53,2.44,21.03,3.34,31.58c0.42,3.13-4.77,4.94-6.15,1.98
		c-2.51-5.57-4.71-11.53-9.23-15.87c-3.84-4.02-9.22-6.21-14.69-6.8C885.75,489.34,885.43,486.3,885.11,483.27 M896.38,486.07
		C896.39,489.39,899.43,484.65,896.38,486.07 M846.95,487.51c10.86-1.22,21.72-2.56,32.6-3.51c4.17,39.39,8.67,78.74,12.83,118.13
		c-11.13,1.09-22.22,2.61-33.36,3.55c-3.73,0.21-5.69-4.65-3.78-7.5c1.51-1.58,3.77-2.37,4.97-4.24c0.41-1.58,0.18-3.23,0.07-4.82
		c-3.17-28.74-6.29-57.49-9.44-86.23c-0.25-1.49-0.36-3.13-1.34-4.36c-2.09-1.69-5.79-1.58-6.59-4.59
		C841.79,491.06,843.8,487.62,846.95,487.51 M823.75,488.74c1.12-1.98,4.54-1.88,5.49,0.22c0.62,1.23,0.68,2.63,0.9,3.98
		c1.17,10.99,2.37,21.97,3.6,32.95c0.13,2.03,0.53,4.33-0.66,6.15c-1.39,1.96-4.72,1.79-5.96-0.24c-1.81-2.89-2.35-6.34-3.65-9.45
		c-3.03-7.78-7.47-15.59-14.77-20.06c-3.11-1.99-6.82-2.59-10.43-2.88c-0.3-2.17,1.93-3.04,3.05-4.46c-0.72,0.4-2.18,1.18-2.9,1.57
		c-0.33-2.02-0.6-4.05-0.87-6.07c6.87,0.48,14.45,0.34,20.46,4.09C821.26,494.2,822.29,491.11,823.75,488.74 M786.98,493.34
		c2.01,0.27,3.48-1.28,5.07-2.23c-0.21,2.24,1.91,6.42-1.77,6.35l0.01,0.32c0.69-0.05,2.09-0.15,2.79-0.21
		c-0.2,4.01-4.51,6.2-4.75,10.36c-4.9-3.24-10.98-1.16-16.17-3.44c0.17-2.48,2.74-3.85,4.39-5.38
		C779.34,496.29,782.7,493.01,786.98,493.34 M464.87,493.4c4.71-0.55,9.42-1.19,14.16-1.36c-1.53,0.79-3.09,1.52-4.66,2.24
		c0.05,0.29,0.16,0.88,0.21,1.18c-8.15,0.68-16.25,1.83-24.39,2.59c-0.06-0.74-0.18-2.23-0.24-2.98c4.13-0.17,8.35-1.75,12.42-0.55
		C463.17,494.08,463.9,493.41,464.87,493.4 M440.62,498.86c1.63-1.95,3.2-0.53,4.6,0.84c0.31,4.52,1.33,9,1.03,13.54
		c1.75,7.84,2.13,15.94,3.03,23.91c-0.19,0.31-0.57,0.93-0.77,1.24c1.34,0.73,1.17,2.39,1.4,3.69c5.01,44.62,9.99,89.24,15,133.87
		c-2.04,1.64-4.1,3.26-6.18,4.87c-6.12-54.55-12.15-109.1-18.36-163.64c1.34,0.58,2.69,1.19,4.05,1.77c0.34-0.8,1.04-2.42,1.38-3.23
		c-1.85-0.46-3.75-0.56-5.64-0.49c-0.58-5.59-1.11-11.18-1.96-16.74C438.8,498.58,440.01,498.77,440.62,498.86 M447.53,543.19
		C447.78,546.51,450.42,541.51,447.53,543.19 M689.55,505.61c3.78-2.34,6.58,2.1,10.33,1.87c0.37,0.44,1.12,1.32,1.5,1.76l-1.6,1.67
		c1.79,0.38,3.62,0.58,5.45,0.74c1.96,3.21,3.81,6.5,5.82,9.69c-0.15,0.31-0.45,0.92-0.6,1.23c0.99,0.75,2.1,1.46,2.61,2.68
		c10.36,16.66,19.99,33.77,30.11,50.58c1.09,1.88,2.47,3.73,2.54,6c1.29,12.07,2.65,24.13,3.92,36.2
		c-6.15,0.66-12.3,1.36-18.45,2.02c-18.53-31.2-37.1-62.38-55.62-93.58c-1.89-3.04-3.33-6.76-6.79-8.35
		c-2.23-1.66-6.19-2.62-5.87-6.08c-0.31-3.31,3.27-4.55,5.94-4.73c6.37-0.65,12.72-1.64,19.12-1.95c0.94,0.93,1.28,2.24,1.8,3.43
		C689.71,507.99,689.6,506.4,689.55,505.61 M694.29,508.86c-0.81,0.44-1.82,2.36-0.52,2.77
		C695.45,511.83,696.57,508.03,694.29,508.86 M677.67,514.98c0.05,1.68,3.01,1.82,3.1,0.09
		C680.72,513.36,677.77,513.23,677.67,514.98 M667.12,515.03c1.24,1.13,2.49,2.24,3.76,3.35c1.53-0.65,3.05-1.29,4.55-2
		C672.9,515,669.88,515.35,667.12,515.03 M690.25,516.09C690.54,519.38,693.21,514.45,690.25,516.09 M699.7,521.53
		c1.7-0.08,3.39-0.35,5.06-0.72c-0.27-0.35-0.81-1.04-1.09-1.39C702.29,520.01,700.9,520.62,699.7,521.53 M687.22,526.32
		c-2.93,1.17,1.47,3.42,2.61,1.47C690.82,526.23,688.17,525.86,687.22,526.32 M702.79,535.83c-0.07,0.78-0.09,1.58-0.06,2.38
		c-1.29,0.3-3.1,0.18-3.45,1.8c1.36-0.7,2.8-1.2,4.3-1.52c0.71-1.66,1.98-2.52,3.85-2.21C705.92,535.86,704.35,535.51,702.79,535.83
		 M690.19,537.09c-1.31,0.7-1.31,1.38-0.01,2.05C691.48,538.43,691.48,537.75,690.19,537.09 M770.13,506.56
		c1.41,0.36,2.82,0.81,3.66,2.11c2.04-0.79,4.1-1.56,6.15-2.34c0.83,1.29,1.71,2.56,2.65,3.79c1.92-0.11,3.84-0.12,5.77-0.06
		c0.18,7.39,1.41,14.7,2.09,22.06c1.99,18.25,4,36.5,5.98,54.76c0.62,6.68,1.26,15.03,8.08,18.44c0.29,2.96,0.62,5.91,0.93,8.88
		c-10.2,0.55-19.76-4.76-26.4-12.19c-10.46-11.56-15.93-26.84-18.12-42.08c-1.92-13.82-1.22-28.19,3.35-41.44
		c4.17,0.02,8.55,0.16,12.37-1.81c3.44-1.74,7.58-1.43,10.9-3.47c-3.82-0.27-7.7-0.3-11.45,0.54c-0.88-0.74-1.75-1.47-2.62-2.2
		c-2.08,1.22-4.47,1.48-6.83,1.39C767.6,510.71,768.82,508.6,770.13,506.56 M778.64,517.03c-0.61,1.24,1.58,2.09,2.43,1.34
		C781.8,517.04,779.48,516.1,778.64,517.03 M782.35,522.1c0.05,1.29,0.12,2.59,0.21,3.88c1.63-0.38,3.26-0.81,4.89-1.26
		C786.14,523.17,784.42,522.11,782.35,522.1 M1392.16,511.18c0.63-2.31,3.97-2.61,5.28-0.76c1.09,1.6,1.09,3.62,1.36,5.47
		c1.03,9.99,2.2,19.96,3.23,29.96c-9.52,0.99-19.01,2.15-28.53,3.09c-0.3-3-0.63-5.99-0.92-8.99c7.93-2.38,13.76-9.18,16.4-16.85
		C1390.55,519.26,1390.7,515.04,1392.16,511.18 M603.27,515.29c8.99-2.11,18.38-3.09,27.51-3.48
		c10.46,34.05,20.57,68.23,30.98,102.29c1,4.3,7.67,3.99,7.57,8.85c0.44,3.03-2.82,4.29-5.26,4.48c-11,1.21-21.99,2.52-33,3.6
		c-2.7,0.6-5.76-1.15-5.64-4.13c-0.53-2.67,2.08-4.21,3.46-6.06c1.73-1.74,0.98-4.38,0.5-6.47c-1.29-4.59-2.9-9.08-4.29-13.64
		c-6.05,0.62-12.08,1.33-18.13,1.97c0.25-3.1,0.49-6.2,0.72-9.3c5.05-0.59,10.1-1.13,15.16-1.7c-5.19-17.42-10.17-34.9-15.49-52.28
		c0.44-0.23,1.32-0.68,1.76-0.91c-0.48-0.13-1.45-0.38-1.93-0.51c-1.54-3.87-2.42-7.98-3.7-11.94
		C602.14,522.58,603.18,518.88,603.27,515.29 M620.44,515.64c1.38,0.37,1.93-0.11,1.63-1.46
		C620.7,513.77,620.16,514.25,620.44,515.64 M605.19,516.01C605.48,519.32,608.14,514.3,605.19,516.01 M609.06,519.57
		c1.08,1.13,3.2,1.72,2.63,3.76c0.93-0.63,2.19-1.01,2.46-2.26C613.09,519.19,610.82,519.72,609.06,519.57 M898.75,517.79
		c0.95-3.68,6.3-2.43,6.22,1.14c1.64,13,2.87,26.06,4.37,39.08c0.2,1.96,0.18,5.14-2.36,5.5c-2.84,0.71-4.06-2.55-4.77-4.65
		c-1.67-5.43-4.44-11.32-10.25-13.25c-0.39-3.11-0.73-6.22-1.03-9.33C897.47,532.46,897.48,524.32,898.75,517.79 M733.03,517.88
		c1.89-0.59,5.1-2.22,6.42-0.41c-0.08,4.5,0.76,9.15-0.21,13.57c1.65,2.33,1.39,5.3,1.79,8c0.88,9.35,2.28,18.66,2.85,28.04
		c-2.12-3.86-4.26-7.7-6.5-11.48c-0.98-1.78-2.26-3.51-2.41-5.61c-0.95-7.96-1.66-15.95-2.69-23.9c0.73,0.04,2.19,0.13,2.93,0.17
		c-1.01-0.32-2.04-0.57-3.07-0.77c-0.36-2.81-1.18-5.52-2.23-8.14C730.69,517.48,732.25,517.75,733.03,517.88 M735.39,518.16
		C735.8,521.46,738.26,516.42,735.39,518.16 M733.97,520.96c0.7,1.56,1.54,3.07,2.63,4.4C736.62,523.33,736.5,521.09,733.97,520.96
		 M527.51,522.8c9.97-1.17,20.21,2.41,27.29,9.52c10.94,10.78,15.88,26.04,18.61,40.8c3.12,16.4,2.33,34.38-6.28,49.09
		c-5.58,9.78-15.27,17.44-26.6,19.07c-0.44-3.02-0.77-6.04-1.06-9.06c6.02-2.14,7.03-9.21,6.37-14.74
		c-2.53-23.84-5.18-47.66-7.8-71.48c-0.36-4.35-1.81-8.52-4.17-12.17c-1.81-0.75-3.63-1.47-5.47-2.13
		C528.14,528.73,527.81,525.76,527.51,522.8 M542.13,539C542.29,542.32,545.12,537.43,542.13,539 M488.86,527.28
		c10.99-1.44,22.03-2.49,33.05-3.72c4.21,39.42,8.7,78.82,12.84,118.26c-10.92,1.02-21.8,2.49-32.72,3.48
		c-2.69,0.56-5.12-1.63-5.09-4.31c-1.07-4.96,7.05-4.97,5.88-9.94c-2.99-29.21-6.38-58.39-9.48-87.59c-0.37-1.95-0.34-4.3-1.95-5.7
		c-2.28-1.24-5.91-1.59-6.22-4.79C484.29,530.34,486.06,527.43,488.86,527.28 M498.12,533.05c-1.31,0.76-1.31,1.43,0,2.02
		C499.43,534.3,499.43,533.62,498.12,533.05 M503.41,536.12c2.12,2.31,4.94,1.06,7.13-0.37
		C508.15,535.57,505.76,535.8,503.41,536.12 M511.38,537.07c1.4,2.48,3.97,2.43,6.49,1.86
		C515.88,537.78,513.69,537.04,511.38,537.07 M496.31,538.13C496.45,541.47,499.29,536.56,496.31,538.13 M510.08,539.33
		c-0.27,0.42-0.8,1.24-1.06,1.66c1.19,0.2,2.39,0.41,3.59,0.63c0.05-0.24,0.16-0.7,0.21-0.94
		C511.9,540.23,510.99,539.78,510.08,539.33 M514.31,540.18C514.85,540.71,514.85,540.71,514.31,540.18 M594.69,599.11
		c2.29-20.77,3.96-41.62,6.64-62.33c1.6,6.09,3.84,12.03,5.13,18.19c-1.74,19.03-4.01,38.01-5.79,57.04
		c-0.18,3.77-0.24,8.62,3.36,10.91c2.44,1.64,6.48,2.35,6.66,5.94c0.79,2.89-1.97,4.89-4.55,4.95c-6.36,0.65-12.71,1.77-19.1,1.82
		c-3.9,0.05-5.74-5.93-2.45-7.98c2.08-1.58,4.37-3.07,5.57-5.49C593.88,615.08,593.69,606.84,594.69,599.11 M675.38,536.72
		c2.9,4.2,5.24,8.75,7.84,13.13c1.52,2.43,1.35,5.39,1.73,8.13c1.5,13.7,2.94,27.42,4.53,41.12c1.12,6.13,3.22,13.24,9.49,15.93
		c3.74,1.31,3.59,7.55-0.4,8.41c-6.45,1.12-13.01,1.75-19.54,2.21c-3.46,0.33-5.45-3.75-4.08-6.61c1.81-2.17,4.44-3.7,5.52-6.42
		c1.87-4.63,2.05-9.76,1.6-14.67C679.82,577.54,677.58,557.13,675.38,536.72 M1131.37,541.03c0.19-1.74,1.79-3.08,3.56-2.69
		c2.26,0.16,2.9,2.75,3.06,4.61c1.19,10.61,2.46,21.22,3.55,31.84c-10.65,1.07-21.28,2.34-31.92,3.48c0.72-3.13,1.46-6.26,2.17-9.39
		c4.66-2.03,9.53-4.26,12.75-8.38C1128.92,554.95,1130.01,547.76,1131.37,541.03 M805.99,551.11c10.32-1.34,20.69-2.4,31.04-3.46
		c2.99-0.52,4.3,2.94,4.11,5.36c0.11,3.17-3.85,4.79-3.53,7.99c0.95,10.68,2.5,21.32,3.35,32.01c-6.57,10.44-17.56,18.57-29.91,20.5
		c-0.33-3.01-0.66-6.02-0.93-9.03c3.25-1.98,5.15-5.68,4.62-9.49c-1.03-10.53-2.16-21.07-3.47-31.57c-0.27-3.09-4.11-2.63-6.23-3.48
		C800.74,558.77,801.26,551.25,805.99,551.11 M916.58,563.83c0.47-1.79,2.67-2.73,4.29-1.78c1.83,0.88,1.99,3.17,2.26,4.93
		c1.13,10.46,2.28,20.91,3.42,31.36c-9.52,1.02-19.02,2.12-28.53,3.12c-0.31-3.01-0.64-6.02-0.95-9.03
		c7.45-2.21,13.11-8.37,15.89-15.48C914.85,572.77,915.14,568.13,916.58,563.83 M1409.14,579.64c9.58-1.07,19.17-2.15,28.77-3.2
		c0.12,1.49,0.26,2.99,0.41,4.5c-9.85,1.04-19.67,2.29-29.51,3.25c-0.96-0.91-2.55-1.57-2.69-3.02
		C1406.91,580.33,1407.93,579.68,1409.14,579.64 M1409.27,582.35C1409.77,582.85,1409.77,582.85,1409.27,582.35 M1373.08,583.62
		c10.81-0.9,21.55-2.7,32.37-3.33l-0.23,0.8c-0.57,1.39-2.13,1.35-3.33,1.69c-0.75,0.84-1.5,1.69-2.23,2.54
		c-10.35,0.97-20.64,2.44-30.99,3.31c1.77-2.36,4.76-2.72,7.53-2.59C1375.13,585.21,1374.12,584.43,1373.08,583.62 M1348.03,586.54
		c7.42-0.86,14.84-1.84,22.31-2.33c-1.24,1.33-2.96,1.39-4.62,0.91l1.08,1.85c-1.42-0.65-2.85-1.31-4.24-1.93
		c-0.78,1.53-1.53,3.08-2.21,4.66c-8.37,0.89-16.74,1.74-25.07,2.95c1.06-0.63,2.51-0.87,2.86-2.25c0.65-0.24,1.94-0.73,2.58-0.97
		c-0.39-0.49-1.17-1.47-1.56-1.96c2.84-0.3,5.68-0.61,8.53-0.97c-0.84,1.1-1.58,2.22-2.33,3.37
		C1346.58,589.05,1347.55,587.95,1348.03,586.54 M1285.65,593.47c7.17-0.66,14.29-1.83,21.5-2.18c-1.4,0.72-4.11-0.05-4.31,2.12
		c1.56,0.04,3.12,0.07,4.7,0.1c-3.61,2.62-8.19-0.34-11.94,2.04c-1.77,2.67-5.8,2.11-8.52,1.39c-1.36,0.05-2.69,0.12-4.02,0.2
		C1284.08,596.03,1284.95,594.81,1285.65,593.47 M863.06,640.84c112.39-12.54,224.76-25.23,337.16-37.74
		c-2.83,2.12-5.27,5.52-9.11,5.58c-74.06,8.24-148.11,16.63-222.17,24.87c-0.48-0.98-0.96-1.94-1.46-2.89
		c0.17,0.69,0.52,2.08,0.69,2.77c-2.07,0.38-4.14,0.68-6.22,0.94c-1.22-0.41-2.42-0.78-3.63-1.15c-0.5,2.12-2.77,1.78-4.43,2.07
		c-21.06,2.12-42.05,5.06-63.13,6.78c-2.34,0.52-4.72,0.79-7.09,0.96c0-0.48,0.01-1.43,0.01-1.91c-0.22,1.48-0.99,2.48-2.58,2.31
		c-33.34,3.62-66.64,7.53-99.99,11.2c-1.25,0.1-2.5-0.1-3.74-0.24c-2.26,1.04-4.76,1.19-7.18,1.52c0.01-0.61,0.02-1.82,0.03-2.43
		c-0.78-0.28-2.34-0.85-3.11-1.13c-0.51,0.5-1.54,1.48-2.05,1.98c0.17,0.47,0.51,1.42,0.67,1.9c-2.4,0.89-4.49-0.32-6.52-1.46
		c0.2,0.46,0.6,1.39,0.8,1.85c-8.94,1.68-18.02,2.3-27.04,3.42c-22.46,2.6-44.96,4.87-67.39,7.68c-0.28-1-0.58-1.99-0.9-2.97
		c0.04,0.73,0.12,2.2,0.16,2.93c-11.25,1.08-22.5,2.63-33.76,3.81c0.11-0.6,0.33-1.8,0.44-2.4c-0.32,0.83-0.64,1.67-0.95,2.52
		c-6.47,0.36-12.86,1.82-19.34,1.7c-7.29,1.62-14.79,1.85-22.17,2.87c-8.66,1.16-17.37,1.7-26.06,2.53
		c-4.12-1.53-8.88-1.59-12.72,0.76c-1.48-0.49-2.96-1.01-4.43-1.51c0.03,0.75,0.1,2.26,0.13,3.02c-1,0.12-2.99,0.38-3.99,0.51
		c0.28-1.58,0.56-3.16,0.85-4.72c8.61-0.94,17.2-2.17,25.85-2.62c0.05,0.61,0.15,1.85,0.2,2.47l1.58-0.24
		c-0.07-0.67-0.21-2.02-0.28-2.69l1.27,0.23c-0.04,0.65-0.11,1.96-0.15,2.61c0.83-0.9,1.39-1.95,1.69-3.14
		c4.02-1.28,8.42,0.57,12.21-1.34c0.03,0.68,0.1,2.05,0.14,2.74c0.46-1,0.92-2,1.37-3c9.08-0.89,18.12-2.12,27.21-2.92
		c-0.21,0.51-0.64,1.52-0.85,2.03c0.66-0.61,2-1.83,2.67-2.44l-0.37,3.4c0.5-0.12,1.5-0.37,2-0.5c-0.05-0.75-0.14-2.26-0.19-3.01
		c10.45-1.09,20.92-2.33,31.39-3.12c1.05,0.39,2.11,0.78,3.18,1.18c-0.08-0.48-0.23-1.45-0.31-1.93c1.67-0.13,3.34-0.29,5.02-0.44
		c0.33,3.07,4.23,1.88,6.33,2.67c-0.14-0.83-0.41-2.48-0.54-3.31c40.63-4.66,81.29-9.11,121.93-13.71c0.44,0.41,1.33,1.24,1.77,1.66
		c-0.49,0.35-1.45,1.04-1.94,1.38c0.62-0.02,1.85-0.08,2.47-0.11c-0.07-0.81-0.22-2.43-0.29-3.24c17.27-1.74,34.5-3.83,51.75-5.71
		c5.42-0.54,10.83-1.46,16.29-1.48C857.11,641.39,860.1,641.17,863.06,640.84 M849.26,644.2
		C849.32,647.54,852.28,642.72,849.26,644.2 M1082.11,626.1c39.24-4.26,78.45-8.92,117.7-13.07c-1.66,2.7-4.77,3.61-7.09,5.54
		c0.68-0.06,2.03-0.19,2.7-0.25c2.83,1.2,5.9-0.09,8.86,0.16c-0.93,0.63-2.05,0.94-3.15,1.03c-37.38,4.13-74.75,8.44-112.13,12.52
		c-3.35-0.62-6.28-3.12-9.72-3.92c-0.05-0.24-0.16-0.73-0.21-0.98C1079.98,626.5,1081,626.16,1082.11,626.1 M1219.74,611.92
		c1.14,0.83,2.29,1.66,3.46,2.5c0.67-0.14,2.02-0.42,2.7-0.56c0.49,0.61,1.49,1.84,1.99,2.45c-7.57,1.17-15.2,1.89-22.81,2.68
		c0.06-0.74,0.19-2.21,0.26-2.95c1.37-0.24,2.62,0.23,3.89,0.74c2.34-0.63,4.79-2.29,7.09-0.48
		C1218.02,615.26,1220.55,614.58,1219.74,611.92 M1046.26,630.08c10.16-0.97,20.3-2.25,30.45-3.36l0.31,0.5l0.04,0.71l-0.2,0.68
		l-1.85-0.18c0.1,1.03,0.19,2.07,0.3,3.12c1.76-0.62,3.24-0.36,3.73,1.66c-8.57,0.89-17.11,2.03-25.71,2.54
		c-1.9-1.97-4.38-3.19-7.1-3.49C1046.24,631.71,1046.25,630.62,1046.26,630.08 M999.06,635.45c15.63-1.81,31.28-3.42,46.9-5.33
		c-0.23,1.28-0.43,2.58-0.67,3.87c0.44,0.2,1.33,0.62,1.77,0.82c-0.78-0.01-2.33-0.05-3.1-0.06c-0.42-0.83-0.82-1.65-1.22-2.47
		c-0.57,0.04-1.72,0.1-2.3,0.14c-0.15,1.11-0.3,2.23-0.43,3.36c-1.36,0.59-2.79,1.96-4.26,0.86c-2.24,1.99-5.42,2.11-8.26,2.24
		c-0.32-0.61-0.97-1.83-1.29-2.43c-1.08-0.31-2.16-0.61-3.23-0.89c0.08-0.42,0.22-1.25,0.29-1.67l-0.93-0.11
		c0.01,0.68,0.04,2.04,0.05,2.73c0.82-0.04,2.47-0.11,3.29-0.14c-0.02,0.64-0.04,1.93-0.05,2.57c-7.97,1.39-16.06,2.05-24.11,2.7
		c-5.33,0.92-10.72,1.62-16.13,1.82c-2.72,0.3-5.91,1.86-8.29-0.13l-0.67,1.28c-5.14,0.63-10.33,1.62-15.51,1.45
		c-0.12-0.48-0.36-1.42-0.48-1.89c-0.38,0.62-0.76,1.24-1.13,1.86c-3.91-2.01-6.95,2.57-10.96,1.44
		c-8.43,1.85-17.13,1.95-25.63,3.34c-0.27-0.73-0.35-1.47-0.25-2.22l-0.05-0.44c-0.23,0.06-0.7,0.18-0.93,0.24
		c-0.23,0.94-0.41,1.89-0.56,2.86c-5.63-0.23-11.17,1.51-16.8,1.11c-2.65-0.56-5.29-1.18-7.98-1.4c-0.16-0.38-0.47-1.13-0.63-1.51
		c-0.6-0.02-1.8-0.05-2.4-0.07c0.08,0.5,0.22,1.49,0.3,1.99c-1.84-0.08-3.64,0.18-5.41,0.62c0.18,0.54,0.54,1.63,0.71,2.17
		c-1.94,0.48-3.92,0.77-5.9,0.94c-0.05-0.33-0.15-1-0.2-1.33c-0.95-1.29-1.92-2.55-2.98-3.73c-0.73-0.18-2.21-0.53-2.94-0.7
		c40.5-4.97,81.1-9.09,121.63-13.8c0.03,0.56,0.1,1.68,0.13,2.25c0.26,0.02,0.76,0.07,1.02,0.1
		C999.32,637.07,999.19,636.26,999.06,635.45 M821.87,655.44c4.42-0.22,8.75-1.38,13.19-1.6c3-0.24,6.53-0.89,8.37,2.15
		c0.64-0.26,1.29-0.52,1.94-0.76c1.21,0.13,2.44,0.35,3.67,0.52c0.35,0.15,1.04,0.44,1.39,0.59c3.29-0.46,6.6,0.73,9.9,0.98
		c-11.93,2.07-24.04,3.07-36.09,4.32c0.54-1.83,1.08-3.64,1.61-5.46c-1.37,0.14-2.74,0.31-4.1,0.51
		C821.78,656.38,821.84,655.75,821.87,655.44 M832.13,655.38c-1.51,1.04-0.01,3.87,1.69,3.06
		C835.06,657.4,833.76,654.6,832.13,655.38 M777.67,660.58c12.39-2.14,24.99-2.88,37.47-4.37c0.02,0.46,0.06,1.38,0.08,1.84
		c1.33-0.09,2.66-0.17,4-0.24c-0.51,1.3-0.99,2.63-1.55,3.93c-1.06-0.56-1.17-1.93-1.79-2.82c-0.29,1.32-0.57,2.64-0.85,3.97
		c-4.74,0.46-9.53,1.32-14.14-0.35c-0.67,0.83-1.31,1.69-1.96,2.54c-0.59-0.71-1.78-2.13-2.38-2.84c-0.07,0.63-0.2,1.9-0.27,2.54
		c-22.87,2.82-45.81,5.24-68.72,7.78l-0.02-1.51c-0.24,0.42-0.71,1.26-0.95,1.68c-16.57,1.76-33.12,3.75-49.68,5.56
		c-1.78,0.34-3.46-0.37-5.12-0.83c-1.23,0.62-2.46,1.25-3.69,1.88c-0.43-0.34-1.29-1.02-1.72-1.36l0.22,1.62
		c-2.23,0.1-4.46,0.24-6.68,0.21c-10.43,1.69-21.01,2.96-31.57,3.64c0.25-0.9,0.5-1.78,0.76-2.66c-1.27,0.27-2.54,0.49-3.82,0.68
		c0.46,0.42,1.38,1.26,1.83,1.68c-2.08,1.34-4.68,1.14-7.03,1.44c-3.65,0.17-7.25,1.3-10.92,0.74c-3.18,1.55-6.71,0.77-9.87-0.37
		c-5.75,0.38-11.38-1.06-17.11-0.61c0.21,0.39,0.63,1.17,0.84,1.56c-1.7,0.57-3.41,1.09-5.1,1.68c-0.63-0.93-1.25-1.85-1.86-2.77
		c1.3,0.47,2.59,0.97,3.94,1.32c-0.24-0.78-0.71-2.33-0.95-3.11c7.62-1.66,15.46-2.08,23.2-3.05c0,0.54-0.01,1.63-0.01,2.18
		c1.66-0.23,3.32-0.48,4.95-0.88c0.48,0.26,1.44,0.78,1.91,1.04c0.91-0.93,1.8-1.87,2.69-2.81c10.24-2.09,20.68-3.12,31.1-3.85
		c-1.06,1.63-2.04,3.34-2.46,5.27c4.23-0.41,8.49-0.3,12.69-0.95c-0.27-0.82-0.54-1.63-0.8-2.44c-1.45-0.59-2.95-1.18-3.74-2.61
		c14.78-2.08,29.67-3.38,44.49-5.18c2.77-0.26,5.68-1.08,8.35,0.16c-0.62,0.52-1.85,1.56-2.47,2.08c2.38,0.02,4.76,0.01,7.13-0.15
		l0.47-0.03c-0.05-1.22-0.09-2.44-0.13-3.65c17.25-1.66,34.44-3.89,51.68-5.65c2.52-0.54,3.32,2.23,3.96,4.06
		c0.31-0.51,0.62-1.02,0.95-1.51c-0.83-2.05-0.41-3.55,2.03-3.72c0.08,0.82,0.25,2.45,0.34,3.26c0.39,0.38,1.18,1.13,1.57,1.5
		c-0.1-1.42-0.19-2.83-0.28-4.24c0.6-0.13,1.79-0.4,2.39-0.54c0.68,1.13,1.16,2.45,2.14,3.4c7.26,0.33,14.51,0.14,21.68-1.18
		c-0.04-1.08-0.06-2.16-0.09-3.23c-0.78,0.34-1.57,0.69-2.34,1.04C786.3,659.67,781.86,661.86,777.67,660.58 M711.07,669.24
		C709.49,672.2,714.39,669.44,711.07,669.24 M713.71,670.18c0.17,0.83,0.39,1.66,0.64,2.49c0.84,0.1,2.53,0.29,3.37,0.39
		c-0.48-1.07-0.95-2.14-1.41-3.21C715.51,670.07,714.21,669.22,713.71,670.18 M614.55,681.14c0.36,0.35,1.08,1.05,1.44,1.4
		c-0.66,0.02-1.98,0.06-2.64,0.08c2.56,2.42,6.2,1.1,9.29,1.08c-0.23-1.48-0.46-2.95-0.7-4.42
		C619.44,679.76,616.98,680.39,614.55,681.14 M629.86,679.25c-0.23,0.87-0.7,2.61-0.93,3.48c1.53-0.17,3.06-0.39,4.58-0.68
		c0.09-0.7,0.27-2.09,0.37-2.79C632.53,679.27,631.2,679.26,629.86,679.25 M534.29,678.46c2.06-1.4,4.66-1.2,7.02-1.56
		c0.2,1.55,0.4,3.12,0.59,4.69c-5-0.13-9.84,1.12-14.78,1.54c-1.58,0.1-3.15,0.2-4.72,0.31c-0.31-1.48-0.62-2.95-0.93-4.41
		c1.79-0.13,3.6-0.08,5.39,0.13c0.49,1.07,1.03,2.16,1.77,3.1c-0.28-0.69-0.82-2.07-1.1-2.76c1.27-0.59,2.55-1.16,3.84-1.69
		c0.33,1.48,0.71,4.68,2.6,2.24c-0.48-0.6-1.45-1.78-1.94-2.38c1.63,0.09,2.5,1.04,2.6,2.87c0.55,0.11,1.65,0.33,2.2,0.45
		c0.04-0.65,0.12-1.95,0.16-2.6C536.31,678.41,534.96,678.45,534.29,678.46 M482.83,683.57c2.63-0.44,5.29-0.75,7.97-0.77
		c-0.54,1.56-1.07,3.11-1.57,4.7c-0.91-0.02-1.81-0.03-2.72-0.03c-0.06-0.47-0.18-1.42-0.24-1.9
		C484.85,685.36,483.67,684.71,482.83,683.57L482.83,683.57z"/>
	<path class="st2" d="M1389.28,389.61c9.08-0.79,18.13-1.94,27.19-2.97c0.16,1.02,0.34,2.05,0.52,3.09
		c-8.72,1.05-17.47,1.82-26.17,3.05C1390.27,391.73,1389.76,390.67,1389.28,389.61 M1356.73,393.39c9.43-1.04,18.85-2.22,28.31-3.11
		c1.3,0.89,2.76,1.36,4.36,1.42c-0.07,0.35-0.22,1.06-0.29,1.41c-4.71,0.06-9.36,0.86-14.03,1.32c-4.04,0.33-8.19,1.57-12.15,0.15
		C1360.84,393.39,1357.29,396.73,1356.73,393.39 M1255.56,404.65c11.83-1.12,23.62-2.71,35.45-3.82c2.89,1.26,6.1,1.06,9.16,1.65
		c-5.27,1.22-10.69,1.45-16.04,2.14c-4.9,0.44-9.86,1.69-14.74,0.45l0.02,1.49c-3.34-0.33-6.66-0.87-9.95-1.41
		c-0.03,0.77-0.09,2.31-0.12,3.08c-0.76-0.85-2.3-2.53-3.07-3.38l0.59,2.84c-2.35-0.49-4.65,0.5-6.96,0.74
		c-15.11,1.82-30.27,3.29-45.38,5.2c0.25-0.84,0.73-2.53,0.98-3.38c15.16-1.5,30.29-3.38,45.44-5.01c1.56-0.29,3.04,0.44,4.55,0.77
		C1255.51,405.67,1255.54,404.99,1255.56,404.65 M1090.35,423.2c18.56-1.98,37.1-4.13,55.65-6.2c1.24-0.15,2.46-0.02,3.66,0.38
		c1.13,0.03,2.27,0.04,3.43,0.03c-0.1,0.5-0.29,1.5-0.38,2c-30.66,3.35-61.32,6.76-91.95,10.31c-0.59-0.96-2.88-1.59-2.33-2.83
		c10.43-1.4,20.94-2.22,31.37-3.69l-0.1,2C1089.86,424.7,1090.18,423.7,1090.35,423.2 M1049.43,428.12c3.11-1.39,6.21,0.09,9.02,1.5
		c-13.71,2.22-27.6,3.21-41.38,4.94c-20.61,2.25-41.2,4.75-61.83,6.83c-1.55-1.59-3.69,0.36-5.48,0.43
		c-0.55-0.85-1.06-1.72-1.53-2.61c27.93-3.19,55.89-6.28,83.84-9.42c3.58-0.37,7.17-1,10.8-0.82c0.22,0.5,0.67,1.49,0.89,1.98
		C1046.86,431.84,1046.3,427.54,1049.43,428.12 M940.03,440.08c2.71-0.24,6.68-1.49,7.97,1.9c-5.73,1.31-11.63,1.48-17.44,2.27
		c-6.07,0.54-12.1,1.72-18.21,1.67c0.27-1.06,0.55-2.11,0.84-3.16C922.17,442.52,931.08,440.93,940.03,440.08 M795.4,456.2
		c28-2.83,55.95-6.24,83.93-9.28c0.59,1.55-0.39,3.41-2.12,3.36c-37.03,4.05-74.04,8.28-111.07,12.41
		c-1.56,0.15-3.13,0.13-4.69,0.08c-3.07,1.02-6.33,1.13-9.51,1.51c-26.97,3.02-53.93,6.04-80.9,9.06
		c-5.62,0.56-11.21,1.55-16.87,1.41c-5.94,1.62-12.15,1.66-18.21,2.53c-3.29,0.17-6.87,1.59-9.89-0.34
		c-0.36,0.74-0.73,1.47-1.09,2.21c-0.55-0.98-1.11-1.95-1.67-2.91c3.8-0.95,7.67-1.6,11.58-1.92c11.25-1.31,22.53-2.39,33.76-3.89
		l-0.12,2.11c0.29-0.54,0.89-1.64,1.19-2.18c15.79-1.58,31.54-3.51,47.32-5.24c4.36-0.44,8.71-1.28,13.12-1.02
		c3.45-1.19,7.16-1.18,10.75-1.66c17.86-2.07,35.74-3.89,53.58-6.11c0.17,0.59,0.5,1.77,0.67,2.36
		C795.22,458.07,795.34,456.83,795.4,456.2 M583.05,480.14c6.69-0.63,13.37-1.76,20.11-1.86c-0.6,0.21-1.78,0.61-2.37,0.81
		c0.24,0.5,0.72,1.5,0.96,1.99c-17.93,2.05-35.87,4.05-53.81,6.06c-3.58,0.39-7.34-0.75-10.72,0.91c-7.95,1.77-16.21,1.6-24.23,2.99
		c-2.44,0.28-4.97,0.93-7.38,0.12c0.47-0.15,1.41-0.43,1.88-0.57c0.29-1.73,1.42-2.57,3.36-2.54l-0.42,1.73l0.62,0.26
		c0.06-0.49,0.18-1.48,0.24-1.97C535.23,485.72,559.12,482.71,583.05,480.14 M496.1,489.84c1.71-0.12,3.43-0.17,5.14-0.15
		c-0.2,0.72-0.6,2.14-0.8,2.85c-1.87,0.15-3.74,0.33-5.6,0.52C495.28,491.99,495.7,490.92,496.1,489.84 M726.02,512.11
		c0.98-0.51,1.94-1.04,2.93-1.53c1.04,1.1,2.09,2.2,3.13,3.3c-1.02,0.82-2.03,1.66-3.01,2.53
		C728.47,514.7,727.18,513.42,726.02,512.11L726.02,512.11z"/>
	<path class="st3" d="M1281.3,393.21C1284.63,393.43,1279.62,396.2,1281.3,393.21L1281.3,393.21z"/>
	<path class="st4" d="M1349.49,394.16c1.18-0.92,1.89-0.7,2.14,0.64C1350.43,395.72,1349.71,395.5,1349.49,394.16L1349.49,394.16z"
		/>
	<path class="st5" d="M1180.16,404.44c-0.7-1.51,1.93-2.47,2.95-1.55C1183.66,404.31,1181.13,405.15,1180.16,404.44 M667.12,515.03
		c2.76,0.32,5.78-0.03,8.31,1.35c-1.5,0.71-3.02,1.35-4.55,2C669.61,517.27,668.36,516.16,667.12,515.03 M699.7,521.53
		c1.2-0.91,2.59-1.52,3.97-2.11c0.28,0.35,0.82,1.04,1.09,1.39C703.09,521.18,701.4,521.45,699.7,521.53 M733.97,520.96
		c2.53,0.13,2.65,2.37,2.63,4.4C735.51,524.03,734.67,522.52,733.97,520.96 M782.35,522.1c2.07,0.01,3.79,1.07,5.1,2.62
		c-1.63,0.45-3.26,0.88-4.89,1.26C782.47,524.69,782.4,523.39,782.35,522.1 M702.79,535.83c1.56-0.32,3.13,0.03,4.64,0.45
		c-1.87-0.31-3.14,0.55-3.85,2.21c-1.5,0.32-2.94,0.82-4.3,1.52c0.35-1.62,2.16-1.5,3.45-1.8
		C702.7,537.41,702.72,536.61,702.79,535.83 M511.38,537.07c2.31-0.03,4.5,0.71,6.49,1.86C515.35,539.5,512.78,539.55,511.38,537.07
		 M510.08,539.33c0.91,0.45,1.82,0.9,2.74,1.35c-0.05,0.24-0.16,0.7-0.21,0.94c-1.2-0.22-2.4-0.43-3.59-0.63
		C509.28,540.57,509.81,539.75,510.08,539.33L510.08,539.33z"/>
	<path class="st6" d="M1195.47,404.86c0.39-1.23,1.27-1.52,2.62-0.85C1197.68,405.26,1196.8,405.55,1195.47,404.86L1195.47,404.86z"
		/>
	<path class="st7" d="M1169.34,405.14c1.6-1.05,2.34,1.4,0.6,1.73C1168.34,407.87,1167.62,405.48,1169.34,405.14L1169.34,405.14z"/>
	<path class="st8" d="M1153.06,406.6c0.79-0.81,3.11-0.08,2.51,1.23C1154.74,408.72,1152.36,407.94,1153.06,406.6L1153.06,406.6z"/>
	<path class="st9" d="M1069.21,417.15c0.91-0.74,3.71-0.23,2.57,1.33C1070.64,420.33,1066.24,418.61,1069.21,417.15 M849.26,644.2
		C852.28,642.72,849.32,647.54,849.26,644.2L849.26,644.2z"/>
	<path class="st10" d="M912.22,437.44c-1.33-0.53-2.65-1.25-3.08-2.69c1.47,0.01,4.43,0.04,5.91,0.05l-0.95,1.13
		C913.63,436.31,912.69,437.06,912.22,437.44L912.22,437.44z"/>
	<path class="st11" d="M878.26,441.24C878.77,441.76,878.77,441.76,878.26,441.24L878.26,441.24z"/>
	<path class="st12" d="M723.54,456.12C726.59,454.65,723.6,459.43,723.54,456.12 M879.63,650.04c1.06,1.18,2.03,2.44,2.98,3.73
		c0.05,0.33,0.15,1,0.2,1.33c-1.66,0.52-3.4,0.73-5.12,0.8l0.19-0.58C878.45,653.55,879.04,651.79,879.63,650.04L879.63,650.04z"/>
	<path class="st13" d="M555.58,471.36c0.5-0.98,3.06-1.23,2.83,0.26C557.91,472.6,555.36,472.84,555.58,471.36 M1364.31,588.6
		c0.69-1.28,1.37-1.26,2.05,0.07C1365.61,589.91,1364.93,589.88,1364.31,588.6 M1268.36,595.47c1.58-0.68,3.7-1.06,5.32-0.28
		C1273.01,596.71,1269.15,596.69,1268.36,595.47 M1271.44,609.17c0.91,0.73,1.84,1.47,2.76,2.23c-1.81,0.05-3.61,0.12-5.4,0.14
		c0.72-0.11,2.15-0.32,2.86-0.43C1271.61,610.63,1271.5,609.66,1271.44,609.17 M866.07,650.72c1.4-0.12,2.79-0.26,4.2-0.34
		c-0.78,1.56-2.37,2.18-3.92,2.7C866.28,652.49,866.14,651.31,866.07,650.72 M874.08,655.25c0.6-1.38,3.26-1.38,3.8,0.07l-0.19,0.58
		C876.65,656.46,874.44,656.68,874.08,655.25 M771.44,661.02c1.86-0.27,3.72-0.55,5.58-0.84c-0.76,0.89-1.52,1.79-2.26,2.7
		C773.68,662.21,772.56,661.58,771.44,661.02 M505.18,684.71c0.11-2,1.91-2.75,3.49-3.34c0.03,0.73,0.08,2.2,0.1,2.93
		c1.33,0.02,2.67,0.01,4-0.03v0.53c-5.25,0.43-10.48,1.01-15.72,1.44c0.25-0.48,0.74-1.46,0.99-1.94
		C500.38,684.87,502.79,684.89,505.18,684.71L505.18,684.71z"/>
	<path class="st14" d="M612.29,477.11C615.26,475.53,612.52,480.43,612.29,477.11L612.29,477.11z"/>
	<path class="st15" d="M614.81,479.82c1.96-1.35,4.21-2.1,6.63-1.78C619.77,480.07,617.23,480.21,614.81,479.82L614.81,479.82z"/>
	<path class="st16" d="M611.39,479.02C614.35,477.42,611.58,482.34,611.39,479.02L611.39,479.02z"/>
	<path class="st17" d="M903.15,481.14C906.21,479.66,903.24,484.44,903.15,481.14L903.15,481.14z"/>
	<path class="st18" d="M896.38,486.07C899.43,484.65,896.39,489.39,896.38,486.07L896.38,486.07z"/>
	<path class="st19" d="M487.92,490.93c2.68-0.64,5.44-0.88,8.18-1.09c-0.4,1.08-0.82,2.15-1.26,3.22c-2.21,0.83-4.64,0.61-6.95,0.82
		c2.4-0.46,5.62-0.36,6.2-3.39C492.02,490.57,489.97,490.68,487.92,490.93 M1276.06,610.07
		C1279.09,608.57,1276.16,613.36,1276.06,610.07L1276.06,610.07z"/>
	<path class="st20" d="M479.08,491.71c0.56-0.05,1.69-0.13,2.25-0.17c0.6,0.47,1.8,1.42,2.4,1.9l-0.44-2.38
		c1.08,0.12,2.15,0.25,3.23,0.38l1.4-0.51c2.05-0.25,4.1-0.36,6.17-0.44c-0.58,3.03-3.8,2.93-6.2,3.39c-2.62,0.31-5.24,0.58-7.83,1
		l0.41-0.99C479.8,493.3,479.33,492.57,479.08,491.71 M735.08,499.97c3.79-0.13,8.27-2.04,11.46,0.86
		c-3.41-0.02-6.99-1.12-10.26,0.3c-5.04,1.93-10.5,0.77-15.72,1.68C724.87,500.08,730.27,500.9,735.08,499.97 M1258.69,596.47
		c1.83-0.13,3.69-0.19,5.54-0.28C1264.88,599.79,1260.13,598.06,1258.69,596.47 M1243.62,599.81c1.73-0.94,3.43-2.48,5.55-2.16
		c0.21,0.61,0.63,1.83,0.84,2.44c0.77,0.6,1.56,1.19,2.36,1.79c-0.63,0.05-1.89,0.14-2.52,0.19c-1.54-0.61-3.08-1.16-4.62-1.69
		C1244.83,600.23,1244.02,599.95,1243.62,599.81 M492.78,681.86c1.09,1.12,2.16,2.25,3.22,3.42c-0.87-0.13-2.61-0.4-3.47-0.53
		C492.59,684.03,492.71,682.58,492.78,681.86 M528.06,690.38c1.57-3.44,5.98-2.61,9.04-2.89
		C534.99,690.27,531.12,689.64,528.06,690.38 M486.32,693.51c2.36-0.43,4.98-1.59,7.01,0.37c-0.49,1.13-0.97,2.26-1.45,3.4
		c-1.03-0.77-2.32-1.38-2.54-2.8C488.33,694.16,487.32,693.83,486.32,693.51L486.32,693.51z"/>
	<path class="st21" d="M503.47,491.09C506.52,489.65,503.49,494.41,503.47,491.09L503.47,491.09z"/>
	<path class="st22" d="M694.29,508.86c2.28-0.83,1.16,2.97-0.52,2.77C692.47,511.22,693.48,509.3,694.29,508.86 M620.44,515.64
		c-0.28-1.39,0.26-1.87,1.63-1.46C622.37,515.53,621.82,516.01,620.44,515.64 M677.67,514.98c0.1-1.75,3.05-1.62,3.1,0.09
		C680.68,516.8,677.72,516.66,677.67,514.98 M778.64,517.03c0.84-0.93,3.16,0.01,2.43,1.34
		C780.22,519.12,778.03,518.27,778.64,517.03 M609.06,519.57c1.76,0.15,4.03-0.38,5.09,1.5c-0.27,1.25-1.53,1.63-2.46,2.26
		C612.26,521.29,610.14,520.7,609.06,519.57 M687.22,526.32c0.95-0.46,3.6-0.09,2.61,1.47
		C688.69,529.74,684.29,527.49,687.22,526.32 M503.41,536.12c2.35-0.32,4.74-0.55,7.13-0.37
		C508.35,537.18,505.53,538.43,503.41,536.12 M447.53,543.19C450.42,541.51,447.78,546.51,447.53,543.19 M832.13,655.38
		c1.63-0.78,2.93,2.02,1.69,3.06C832.12,659.25,830.62,656.42,832.13,655.38 M713.71,670.18c0.5-0.96,1.8-0.11,2.6-0.33
		c0.46,1.07,0.93,2.14,1.41,3.21c-0.84-0.1-2.53-0.29-3.37-0.39C714.1,671.84,713.88,671.01,713.71,670.18 M614.55,681.14
		c2.43-0.75,4.89-1.38,7.39-1.86c0.24,1.47,0.47,2.94,0.7,4.42c-3.09,0.02-6.73,1.34-9.29-1.08c0.66-0.02,1.98-0.06,2.64-0.08
		C615.63,682.19,614.91,681.49,614.55,681.14 M629.86,679.25c1.34,0.01,2.67,0.02,4.02,0.01c-0.1,0.7-0.28,2.09-0.37,2.79
		c-1.52,0.29-3.05,0.51-4.58,0.68C629.16,681.86,629.63,680.12,629.86,679.25L629.86,679.25z"/>
	<path class="st23" d="M605.19,516.01C608.14,514.3,605.48,519.32,605.19,516.01L605.19,516.01z"/>
	<path class="st24" d="M690.25,516.09C693.21,514.45,690.54,519.38,690.25,516.09L690.25,516.09z"/>
	<path class="st25" d="M735.39,518.16C738.26,516.42,735.8,521.46,735.39,518.16L735.39,518.16z"/>
	<path class="st26" d="M498.12,533.05c1.31,0.57,1.31,1.25,0,2.02C496.81,534.48,496.81,533.81,498.12,533.05L498.12,533.05z"/>
	<path class="st27" d="M690.19,537.09c1.29,0.66,1.29,1.34-0.01,2.05C688.88,538.47,688.88,537.79,690.19,537.09L690.19,537.09z"/>
	<path class="st28" d="M496.31,538.13C499.29,536.56,496.45,541.47,496.31,538.13L496.31,538.13z"/>
	<path class="st29" d="M542.13,539C545.12,537.43,542.29,542.32,542.13,539L542.13,539z"/>
	<path class="st30" d="M514.31,540.18C514.85,540.71,514.85,540.71,514.31,540.18L514.31,540.18z"/>
	<path class="st31" d="M1409.27,582.35C1409.77,582.85,1409.77,582.85,1409.27,582.35L1409.27,582.35z"/>
	<path class="st32" d="M1445.37,589.07C1448.37,587.59,1445.43,592.39,1445.37,589.07L1445.37,589.07z"/>
	<path class="st33" d="M1253.15,600.55c0.82-1.05,3.57-0.18,2.54,1.28C1254.82,602.86,1252,602.02,1253.15,600.55L1253.15,600.55z"
		/>
	<path class="st34" d="M1245.23,600.38c1.54,0.53,3.08,1.08,4.62,1.69c-1.64,0.45-3.3,0.84-4.95,1.21
		C1244.98,602.56,1245.15,601.1,1245.23,600.38L1245.23,600.38z"/>
	<path class="st35" d="M1040.44,632.42c0.58-0.04,1.73-0.1,2.3-0.14c0.4,0.82,0.8,1.64,1.22,2.47c-1.47-0.32-2.74,0.35-3.95,1.03
		C1040.14,634.65,1040.29,633.53,1040.44,632.42L1040.44,632.42z"/>
	<path class="st36" d="M875.23,649.37C875.81,649.92,875.81,649.92,875.23,649.37L875.23,649.37z"/>
	<path class="st37" d="M835.06,653.84c3.71-0.63,7.47-1.08,11.24-1.02c-0.23,0.6-0.7,1.81-0.93,2.41c-0.65,0.24-1.3,0.5-1.94,0.76
		C841.59,652.95,838.06,653.6,835.06,653.84L835.06,653.84z"/>
	<path class="st38" d="M815.14,656.21c2.28,1.06,4.77,0.88,6.73-0.77c-0.03,0.31-0.09,0.94-0.12,1.25
		c-0.11,1.29-0.23,2.59-0.33,3.89c0.08,0.29,0.23,0.88,0.31,1.18c-2.15,0.78-4.4,1.34-6.7,1.13c0.28-1.33,0.56-2.65,0.85-3.97
		c0.62,0.89,0.73,2.26,1.79,2.82c0.56-1.3,1.04-2.63,1.55-3.93c-1.34,0.07-2.67,0.15-4,0.24
		C815.2,657.59,815.16,656.67,815.14,656.21L815.14,656.21z"/>
	<path class="st39" d="M865.22,655.28c1.3,0.66,1.26,1.32-0.12,1.98C863.8,656.6,863.83,655.94,865.22,655.28L865.22,655.28z"/>
	<path class="st40" d="M790.46,661.35c0.77-0.35,1.56-0.7,2.34-1.04c0.03,1.07,0.05,2.15,0.09,3.23
		c-7.17,1.32-14.42,1.51-21.68,1.18c-0.98-0.95-1.46-2.27-2.14-3.4c-0.6,0.14-1.79,0.41-2.39,0.54c0.09,1.41,0.18,2.82,0.28,4.24
		c-0.39-0.37-1.18-1.12-1.57-1.5c-0.09-0.81-0.26-2.44-0.34-3.26c2.12-0.18,4.25-0.49,6.39-0.32c1.12,0.56,2.24,1.19,3.32,1.86
		C779.53,666.65,785.64,663.33,790.46,661.35L790.46,661.35z"/>
	<path class="st41" d="M703.88,668.43c1.04,0.84,3.18,1.67,2.21,3.41c-2.37,0.16-4.75,0.17-7.13,0.15c0.62-0.52,1.85-1.56,2.47-2.08
		C702.04,669.54,703.27,668.8,703.88,668.43L703.88,668.43z"/>
	<path class="st42" d="M711.07,669.24C714.39,669.44,709.49,672.2,711.07,669.24L711.07,669.24z"/>
	<path class="st43" d="M510.66,680.47c2.57-0.42,5.15-0.71,7.74-1.02c0.19,0.75,0.57,2.27,0.76,3.03l0.17,0.52
		c-1.73,0.09-4.03,0.41-4.61-1.74C513.25,681.77,511.9,681.5,510.66,680.47L510.66,680.47z"/>
	<path class="st44" d="M521.36,678.56l0.11,0.47c0.31,1.46,0.62,2.93,0.93,4.41c1.57-0.11,3.14-0.21,4.72-0.31
		c-2.57,0.64-5.36,1.31-7.79-0.13l-0.17-0.52C521.68,682.75,521.14,680.23,521.36,678.56L521.36,678.56z"/>
	<path class="st45" d="M495.28,693.15c1.22-0.88,1.93-0.64,2.13,0.71C496.19,694.73,495.47,694.49,495.28,693.15L495.28,693.15z"/>
</g>
</svg>
